<svg xmlns="http://www.w3.org/2000/svg" xmlns:xlink="http://www.w3.org/1999/xlink" style="vertical-align:-3.005ex" width="36.841ex" height="6.884ex" viewBox="0 -1670.4 15861.9 2964.1"><defs><path id="i" stroke-width="1" d="M42 46h14q39 0 47 14v64q0 19 1 43t0 50 0 55 0 57v213q0 26-1 44t0 17q-3 19-14 25t-45 9H26v23q0 23 2 23l10 1q10 1 29 2t37 2 37 2 30 3 11 1h3V379q0-317 1-319 4-8 12-11 21-3 49-3h16V0h-8l-23 1q-23 1-49 1t-38 1-38 0-50-2L34 0h-8v46h16z"/><path id="a" stroke-width="1" d="M228 637q-34 0-36 4-1 2-1 8 0 24 11 33 2 1 17 1 41-2 136-2h63q29 0 45 1t20 0q16 0 16-10 0-2-2-14-5-17-10-20h-14q-4 0-9-1t-9 0q-39-1-50-3t-18-11q-3-4-32-123-7-26-15-58t-12-47l-4-15q0-2 145-2h145l1 3q0 3 31 123 28 115 28 123t-57 10q-23 0-30 2t-7 9q0 2 2 12 4 17 6 19t16 3q5 0 42-1t94-1q62 0 95 1t36 1q17 0 17-10 0-27-12-34h-14q-4 0-9-1t-9 0q-39-1-50-3t-18-11q-3-5-72-283T634 58q0-7 4-7 8-3 54-5h31q6-8 6-9t-3-18q-4-13-10-19h-15q-37 2-134 2H458q-17 0-21-1-17 0-17 9 0 5 3 14 5 19 10 21 4 1 15 1h6q27 0 60 3 6 1 8 1t6 5 6 9 6 18 7 28 11 43q7 28 11 45 33 132 33 133t-145 1H312l-33-135Q245 63 245 58q0-7 8-9t50-3h31q6-8 6-9t-3-18q-4-13-10-19h-15q-37 2-134 2H69Q52 2 48 1q-17 0-17 9 0 2 3 14 5 19 10 21 4 1 15 1h6q27 0 60 3 14 3 19 12 3 4 72 278t69 289q0 7-57 9z"/><path id="c" stroke-width="1" d="M107 637q-34 0-36 4-1 2-1 8 0 24 11 33 2 1 17 1 41-2 136-2h63q29 0 45 1t20 0q16 0 16-10 0-2-2-14-5-17-10-20h-14q-4 0-9-1t-9 0q-39-1-50-3t-18-11q-1-2-28-105t-54-216-30-133q-2-14-2-29 0-54 31-85t86-31q67 0 134 45t98 136l51 201q47 192 47 200 0 27-64 31-24 0-24 11 0 2 2 12 4 16 6 19t10 4q3 0 32-1t84-2q51 0 78 1t29 1q15 0 15-10 0-22-8-30-3-5-22-5-71-4-89-40-2-5-50-193-41-169-50-199-33-100-115-163T263-22q-92 0-147 56T60 167v16q0 18 55 238 49 201 49 207 0 7-57 9z"/><path id="d" stroke-width="1" d="M60 749l4 1h22l28-24q94-85 137-212t43-264q0-68-10-131T261 12t-37-88-38-67-41-51-32-33-23-19l-4-4H63q-3 0-5 3t-3 9q1 1 11 13Q221-64 221 250T66 725q-10 12-11 13 0 8 5 11z"/><path id="e" stroke-width="1" d="M56 347q0 13 14 20h637q15-8 15-20 0-11-14-19l-318-1H72q-16 5-16 20zm0-194q0 15 16 20h636q14-10 14-20 0-13-15-20H70q-14 7-14 20z"/><path id="f" stroke-width="1" d="M492 213q-20 0-20 13 0 4 5 24t5 35q0 31-21 38t-97 7h-52q-1-2-35-138T243 52q0-4 11-4t80-2q94 0 124 2t60 13q49 16 81 56t71 131q10 22 13 24 7 2 15 2 20 0 20-13Q613 7 608 2q-3-2-286-2H133Q31 0 31 11q0 2 3 14 4 16 8 18t23 3q27 0 60 3 14 3 19 12 2 5 71 281t70 280q0 7-4 7-8 3-53 5h-31q-6 6-6 8t2 17q4 17 10 21h554q7-4 7-11 0-5-13-112t-14-110q-2-7-20-7h-12q-7 5-7 13l3 23q3 24 3 52 0 30-7 50t-19 31-35 16-47 7-64 2h-47q-88-1-93-3-4-2-6-9-1-3-31-123t-31-122q23-1 48-1h26q66 0 91 15t45 81q4 16 6 18t17 3h8q3 0 5-1t2-1 2-4 3-4l-33-132q-33-133-36-135-3-3-16-3z"/><path id="g" stroke-width="1" d="M118-250V750h137v-40h-97v-920h97v-40H118z"/><path id="h" stroke-width="1" d="M84 237v13l14 20h581q15-8 15-20t-15-20H98q-14 7-14 20z"/><path id="b" stroke-width="1" d="M94 250q0 69 10 131t23 107 37 88 38 67 42 52 33 34 25 21h17q14 0 14-9 0-3-17-21t-41-53-49-86-42-138-17-193 17-192 41-139 49-86 42-53 17-21q0-9-15-9h-16l-28 24q-94 85-137 212T94 250z"/><path id="j" stroke-width="1" d="M28 214q0 95 65 164t157 70q90 0 155-68t66-165q0-95-64-160T250-10q-97 0-159 67T28 214zM250 30q122 0 122 163v57q0 22-1 38t-7 38-16 36-31 28-49 20q-5 1-16 1-30 0-57-12-43-22-56-61t-13-92v-20q0-96 19-135 32-61 105-61z"/><path id="k" stroke-width="1" d="M329 409q44 44 100 44 30 0 43-19t13-38q0-14-9-25t-27-11q-33 0-37 30-2 14 3 21 0 1 1 3v1q-28-3-53-22-8-5-8-7 0-1 4-5t9-12 11-18 9-26 4-33q0-62-49-105t-121-44q-50 0-99 28-11-18-11-38 0-35 26-52 9-6 17-6t72-2q84-1 108-6 61-9 96-41 39-39 39-98 0-67-78-103-60-31-142-31-83 0-143 31-78 35-78 100 0 36 21 60t42 33l11 6q-36 31-36 84 0 47 29 85-44 44-44 99 0 63 50 106t121 44q51 0 95-26l11-7zm-30-66q-5 28-26 44t-52 17q-29 0-50-16t-26-45q-3-17-3-51 0-44 7-65t30-35q17-10 43-10 22 0 38 7t23 18 11 20 5 15q3 16 3 50t-3 51zM403-75q0 25-14 41t-41 23-49 9-54 2h-27q-67 0-80-6-20-9-31-28T95-74q0-10 6-23t21-30 48-28 80-12q69 0 111 28t42 64z"/><path id="l" stroke-width="1" d="M23 287q1 3 2 8t5 22 10 31 15 33 20 30 26 22 33 9q75 0 96-64l10 9q62 55 118 55 65 0 102-47t37-114q0-108-76-199T249-10q-22 0-39 6-11 5-23 15t-19 17l-7 8q-1-1-22-87t-21-87q0-6 8-7t37-3h25q6-7 6-9t-3-18q-3-12-6-15t-13-4h-11q-9 0-34 1t-62 1q-70 0-89-2h-8q-7 7-7 11 2 27 13 35h20q34 1 39 12 3 6 61 239t61 247q1 5 1 14 0 41-25 41-22 0-37-28t-23-61-12-36q-2-2-16-2H29q-6 6-6 9zm155-185q22-76 74-76 30 0 58 23t46 58q18 34 36 108t19 110v6q0 74-61 74-11 0-22-3t-22-9-20-13-17-15-15-15-11-14-8-10l-3-4q0-1-3-14t-11-44-14-52q-26-106-26-110z"/><path id="m" stroke-width="1" d="M184 600q0 24 19 42t44 19q18 0 30-12t13-30q0-23-20-42t-44-20q-15 0-28 10t-14 33zM21 287q0 8 9 31t24 51 44 51 60 22q39 0 65-23t27-62q0-17-14-56t-40-105-42-113q-5-22-5-32 0-25 17-25 9 0 19 3t23 14 27 35 25 59q3 12 5 14t17 2q20 0 20-10 0-8-9-31t-25-51-45-50-62-22q-32 0-59 21T74 74q0 17 5 32t43 114q38 101 44 121t7 39q0 24-17 24h-2q-30 0-55-33t-38-84q-1-1-2-3t-1-3-2-2-3-1-4 0-8 0H27q-6 6-6 9z"/><path id="n" stroke-width="1" d="M22 710v40h137V-250H22v40h97v920H22z"/><path id="o" stroke-width="1" d="M60 948q3 2 605 2h602l58-135q59-138 63-146h-40l-7 14q-21 41-56 78-50 48-111 77t-141 43-151 17-183 4H251l8-11q463-633 465-639 1-2 0-6-3-3-264-302L196-356q0-1 211-1h141q89 0 128-1 136 0 220 5t167 21 141 49 103 87q21 26 41 72h40q0-1-7-21t-25-65-31-84l-58-155-601-1q-602 0-605 2-6 2-6 9 0 2 2 6l533 610q0 1-33 45T452 366 322 544L56 909l-1 15q0 21 5 24z"/><path id="p" stroke-width="1" d="M213 578l-13-5q-14-5-40-10t-58-7H83v46h19q47 2 87 15t56 24 28 22q2 3 12 3 9 0 17-6V361l1-300q7-7 12-9t24-4 62-2h26V0h-11q-21 3-159 3-136 0-157-3H88v46h64q16 0 25 1t16 3 8 2 6 5 6 4v517z"/><path id="q" stroke-width="1" d="M21 287q1 6 3 16t12 38 20 47 33 37 46 17q36 0 60-18t30-34 6-21q0-2 1-2l11 11q61 64 139 64 54 0 87-27t34-79-38-157-38-127q0-26 17-26 6 0 9 1 29 5 52 38t35 80q2 8 20 8 20 0 20-8 0-1-4-15-8-29-22-57t-46-56-69-27q-47 0-68 27t-21 56q0 19 36 120t37 152q0 59-44 59h-5q-86 0-145-101l-7-12-33-134Q156 26 151 16q-13-27-43-27-13 0-21 6T76 7t-2 10q0 13 38 163t40 163q1 5 1 23 0 39-24 39-38 0-63-100-6-20-6-21-2-6-19-6H27q-6 6-6 9z"/></defs><g fill="currentColor" stroke="currentColor" stroke-width="0" transform="scale(1 -1)"><use xlink:href="#a"/><g transform="translate(1055)"><use xlink:href="#b"/><use x="389" xlink:href="#c"/><use x="1157" xlink:href="#d"/></g><use x="2879" xlink:href="#e"/><use x="3935" xlink:href="#f"/><g transform="translate(4866)"><use xlink:href="#g"/><use x="278" xlink:href="#h"/><g transform="translate(1223)"><use xlink:href="#i"/><use x="278" xlink:href="#j"/><use x="779" xlink:href="#k"/></g><g transform="translate(2669)"><use xlink:href="#l"/><use x="712" y="-213" transform="scale(.707)" xlink:href="#m"/></g><use x="3517" xlink:href="#n"/></g><use x="8940" xlink:href="#e"/><use x="9997" xlink:href="#h"/><g transform="translate(10942)"><use xlink:href="#o"/><g transform="matrix(.707 0 0 .707 147 -1090)"><use xlink:href="#m"/><use x="345" xlink:href="#e"/><use x="1124" xlink:href="#p"/></g><use x="721" y="1627" transform="scale(.707)" xlink:href="#q"/></g><g transform="translate(12553)"><use xlink:href="#l"/><use x="712" y="-213" transform="scale(.707)" xlink:href="#m"/></g><g transform="translate(13567)"><use xlink:href="#i"/><use x="278" xlink:href="#j"/><use x="779" xlink:href="#k"/></g><g transform="translate(15014)"><use xlink:href="#l"/><use x="712" y="-213" transform="scale(.707)" xlink:href="#m"/></g></g></svg>