<svg xmlns="http://www.w3.org/2000/svg" xmlns:xlink="http://www.w3.org/1999/xlink" style="vertical-align:-2.63ex" width="21.473ex" height="9.259ex" viewBox="0 -2854.4 9245.1 3986.6"><defs><path id="g" stroke-width="1" d="M95 178q-6 0-14 8t-9 14 31 30 66 50 38 29q2 2 5 2h1q6 0 14-17t54-117q19-43 31-69l85-185q1 0 104 213t206 429 107 221q6 14 20 14 7 0 12-6t7-12v-6L620 293 385-193q-4-7-19-7-9 0-12 3-2 2-98 212l-96 210-16-11q-15-12-31-24t-18-12z"/><path id="a" stroke-width="1" d="M118-162q2 0 6-2t11-3 12-1q13 0 24 13t16 29q10 27 34 153t46 240 22 115v3h-47q-47 0-50 2-4 3-4 10l7 28q2 5 8 5t47 1q48 0 48 1 0 2 9 50t12 58q37 165 146 165 37-2 61-22t24-53q0-36-21-52t-42-17q-44 0-44 42 0 19 11 33t24 21l9 5q-16 6-30 6-12 0-23-10t-15-28q-7-29-16-78t-16-83-7-36q0-2 55-2 45 0 52-1t11-6q1-4-2-17t-5-16q-2-5-9-5t-54-1h-56l-23-122Q301 15 282-47q-27-85-70-126-37-32-73-32-32 0-58 19t-26 54q0 37 21 54t42 17q44 0 44-42 0-19-11-33t-24-21l-9-5z"/><path id="c" stroke-width="1" d="M52 289q7 42 54 97t116 56q35 0 64-18t43-45q42 63 101 63 37 0 64-22t28-59q0-29-14-47t-27-22-23-4q-19 0-31 11t-12 29q0 46 50 63-11 13-40 13-13 0-19-2-38-16-56-66-60-221-60-258 0-28 16-40t35-12q37 0 73 33t49 81q3 10 6 11t16 2h4q15 0 15-8 0-1-2-11-16-57-62-101T333-11q-70 0-106 63-41-62-94-62h-6q-49 0-70 26T35 71q0 32 19 52t45 20q43 0 43-42 0-20-12-35t-23-20-13-5l-3-1q0-1 6-4t16-7 19-3q36 0 62 45 9 16 23 68t28 108 16 66q5 27 5 39 0 28-15 40t-34 12q-40 0-75-32t-49-82q-2-9-5-10t-16-2H58q-6 6-6 11z"/><path id="d" stroke-width="1" d="M60 749l4 1h22l28-24q94-85 137-212t43-264q0-68-10-131T261 12t-37-88-38-67-41-51-32-33-23-19l-4-4H63q-3 0-5 3t-3 9q1 1 11 13Q221-64 221 250T66 725q-10 12-11 13 0 8 5 11z"/><path id="e" stroke-width="1" d="M56 347q0 13 14 20h637q15-8 15-20 0-11-14-19l-318-1H72q-16 5-16 20zm0-194q0 15 16 20h636q14-10 14-20 0-13-15-20H70q-14 7-14 20z"/><path id="f" stroke-width="1" d="M213 578l-13-5q-14-5-40-10t-58-7H83v46h19q47 2 87 15t56 24 28 22q2 3 12 3 9 0 17-6V361l1-300q7-7 12-9t24-4 62-2h26V0h-11q-21 3-159 3-136 0-157-3H88v46h64q16 0 25 1t16 3 8 2 6 5 6 4v517z"/><path id="h" stroke-width="1" d="M109 429q-27 0-43 18t-16 44q0 71 53 123t132 52q91 0 152-56t62-145q0-43-20-82t-48-68-80-74q-36-31-100-92l-59-56 76-1q157 0 167 5 7 2 24 89v3h40v-3q-1-3-13-91T421 3V0H50v31q0 7 6 15t30 35q29 32 50 56 9 10 34 37t34 37 29 33 28 34 23 30 21 32 15 29 13 32 7 30 3 33q0 63-34 109t-97 46q-33 0-58-17t-35-33-10-19q0-1 5-1 18 0 37-14t19-46q0-25-16-42t-45-18z"/><path id="i" stroke-width="1" d="M132-11q-34 0-34 33v11l13 28q75 158 109 273l8 24h-32q-38 0-54-3t-39-19q-11-7-22-18t-19-21-9-12q-2-1-15-1-19 0-19 10 0 6 19 35t55 62 71 38q7 2 225 2 160 0 164-1 20-7 20-28 0-31-32-42-6-2-69-2h-64l-3-17q-12-72-12-119 0-52 9-93t19-64 10-28q0-17-14-32t-36-15q-11 0-18 3t-16 24-16 60q-1 9-1 44 0 49 9 105t18 92 10 40h-98l-1-4q0-3-19-79t-43-161-31-97q-11-28-43-28z"/><path id="b" stroke-width="1" d="M94 250q0 69 10 131t23 107 37 88 38 67 42 52 33 34 25 21h17q14 0 14-9 0-3-17-21t-41-53-49-86-42-138-17-193 17-192 41-139 49-86 42-53 17-21q0-9-15-9h-16l-28 24q-94 85-137 212T94 250z"/><path id="j" stroke-width="1" d="M39 168q0 57 19 104t49 78 67 52 70 31 63 9h3q45 0 78-22t33-65q0-90-111-118-49-13-134-14-37 0-38-2 0-2-6-35t-7-58q0-47 21-74t63-28 93 19 92 66q9 10 12 10 4 0 13-9t10-14-9-16-30-27-46-31-63-25-76-10q-79 0-122 53T39 168zm334 185q-6 52-68 52-33 0-61-14t-45-34-29-41-16-36-5-19q0-1 20-1 113 0 158 24t46 69z"/><path id="n" stroke-width="1" d="M84 237v13l14 20h581q15-8 15-20t-15-20H98q-14 7-14 20z"/><path id="k" stroke-width="1" d="M837 1154q6-6 6-9 0-4-25-39t-65-104-86-161-93-237-80-305q-77-383-77-908 0-32-1-38t-5-7q-2-1-45-1-67 0-69 1-5 2-5 11t-1 60q2 183 13 341t43 352 85 360 142 343 211 323q2 3 5 6t4 5 2 3 3 2 3 1 5 1 6 0h24z"/><path id="m" stroke-width="1" d="M843-635q0-3-6-9h-17q-19 0-20 1-8 8-15 17-101 123-180 263T473-75t-88 291-55 302-28 291-11 284v60q0 9 5 11 2 1 70 1 43 0 45-1 4-1 5-7t1-38q0-590 100-1010t316-726q10-14 10-18z"/><path id="l" stroke-width="1" d="M413-9h-6q-5 0-19-1t-34 0q-54 0-57 1t-4 4q-2 10-2 132v173q0 302 1 305l4 4q2 1 70 1h41q5 0 5-1 4 0 4-17t1-119V127q0-136-4-136z"/><path id="o" stroke-width="1" d="M31 1143q0 11 18 11h10q13 0 16-2t14-16q101-123 180-263t132-288 88-291T544-8t28-291 11-284v-60q0-9-6-11-2-1-69-1-43 0-45 1-4 1-5 7t-1 38q0 551-86 949t-271 697q-13 22-39 61t-30 45z"/><path id="q" stroke-width="1" d="M56-644h-6q-19 0-19 9 0 3 6 13 32 43 63 95 186 299 271 697t86 949q0 42 5 45 2 1 58 1 55 0 57-1 5-2 5-11t1-60q-2-183-13-341t-43-352-85-360-142-343T89-626q-11-14-14-16t-14-2h-5z"/><path id="p" stroke-width="1" d="M579-9h-6q-5 0-19-1t-34 0q-54 0-57 1t-4 4q-2 10-2 132v173q0 302 1 305l4 4q2 1 70 1h41q5 0 5-1 4 0 4-17t1-119V127q0-136-4-136z"/></defs><g fill="currentColor" stroke="currentColor" stroke-width="0" transform="scale(1 -1)"><use xlink:href="#a"/><use x="550" xlink:href="#b"/><use x="940" xlink:href="#c"/><use x="1512" xlink:href="#d"/><use x="2179" xlink:href="#e"/><g transform="translate(3356)"><path stroke="none" d="M0 220h2027v60H0z"/><use x="763" y="676" xlink:href="#f"/><g transform="translate(60 -883)"><use y="47" xlink:href="#g"/><path stroke="none" d="M833 788h1074v60H833z"/><g transform="translate(833)"><use xlink:href="#h"/><use x="500" xlink:href="#i"/></g></g></g><g transform="translate(5503)"><use xlink:href="#j"/><g transform="translate(466 1265)"><g transform="translate(0 1511)"><use y="-1156" transform="scale(.707)" xlink:href="#k"/><use transform="matrix(.707 0 0 .3317 0 -1433.976)" xlink:href="#l"/><use y="-3129" transform="scale(.707)" xlink:href="#m"/></g><use x="875" transform="scale(.707)" xlink:href="#n"/><g transform="translate(1289)"><path stroke="none" d="M0 220h1146v60H0z"/><g transform="translate(60 676)"><use xlink:href="#c"/><use x="809" y="513" transform="scale(.707)" xlink:href="#h"/></g><use x="322" y="-686" xlink:href="#h"/></g><g transform="translate(2555 1511)"><use y="-1155" transform="scale(.707)" xlink:href="#o"/><use transform="matrix(.707 0 0 .33283 0 -1433.962)" xlink:href="#p"/><use y="-3129" transform="scale(.707)" xlink:href="#q"/></g></g></g></g></svg>