<?xml version="1.0" encoding="utf-8"?>
<!-- Generator: Adobe Illustrator 25.2.3, SVG Export Plug-In . SVG Version: 6.00 Build 0)  -->
<svg version="1.1" id="Lager_1" xmlns="http://www.w3.org/2000/svg" xmlns:xlink="http://www.w3.org/1999/xlink" x="0px" y="0px"
	 viewBox="0 0 800 458" style="enable-background:new 0 0 800 458;" xml:space="preserve">
<style type="text/css">
	.st0{fill:#999999;}
	.st1{fill:none;stroke:#404040;stroke-width:4;stroke-miterlimit:10;}
	.st2{fill:#4ED1A1;stroke:#404040;stroke-width:4;stroke-miterlimit:10;}
	.st3{fill:#FFFFFF;stroke:#404040;stroke-width:4;stroke-miterlimit:10;}
	.st4{fill:#B3E3FF;stroke:#404040;stroke-width:4;stroke-miterlimit:10;}
	.st5{fill:#B3E3FF;stroke:#404040;stroke-width:4;stroke-linejoin:round;stroke-miterlimit:10;}
	.st6{fill:#4ED1A1;stroke:#404040;stroke-width:4;stroke-linecap:round;stroke-linejoin:round;stroke-miterlimit:10;}
	.st7{fill:#404040;}
	.st8{fill:none;stroke:#404040;stroke-width:4;stroke-linecap:round;stroke-linejoin:round;stroke-miterlimit:10;}
</style>
<path class="st0" d="M317.5,11.1h-4.7l-1.1,3h-1.6l4.2-10.6h1.7l4.2,10.6h-1.6L317.5,11.1z M313.4,9.8h3.7L315.2,5L313.4,9.8
	L313.4,9.8z M328.8,8.2v5.9h-1.5V8.2H326V6.9h1.3V5.7c0-1.6,1.1-2.5,2.4-2.5c0.5,0,0.8,0.1,0.8,0.2v1.3c-0.1,0-0.3-0.1-0.6-0.1
	c-0.5,0-1.1,0.2-1.1,1.2v1.1h1.7v1.3L328.8,8.2L328.8,8.2z M339.3,10.5c0,2.2-1.5,3.8-3.7,3.8s-3.7-1.6-3.7-3.8s1.5-3.8,3.7-3.8
	S339.3,8.3,339.3,10.5z M337.8,10.5c0-1.7-1.1-2.6-2.2-2.6s-2.2,0.9-2.2,2.6s1,2.6,2.2,2.6S337.8,12.2,337.8,10.5z M345.8,8.3h-0.6
	c-1.2,0-2,0.6-2,2.2v3.6h-1.4V6.9h1.4v1.3c0.5-1.1,1.4-1.4,2.2-1.4h0.5v1.5L345.8,8.3z M351.5,9.9l3.1,4.2h-1.8l-2.4-3.2l-1,1v2.2
	H348V3.3h1.4v6.8l3.1-3.2h1.9L351.5,9.9L351.5,9.9z M362.6,12.1c-0.4,1.3-1.6,2.3-3.2,2.3c-1.9,0-3.6-1.4-3.6-3.9
	c0-2.3,1.6-3.8,3.4-3.8c2.2,0,3.5,1.5,3.5,3.8v0.4h-5.4c0,1.3,1,2.2,2.2,2.2s1.8-0.6,2-1.5C361.5,11.6,362.6,12.1,362.6,12.1z
	 M361.2,9.8c0-1-0.7-1.8-2-1.8c-1.2,0-1.9,0.9-2,1.8H361.2z M370.3,13c-0.3,0.7-1.1,1.3-2.2,1.3c-2.1,0-3.4-1.7-3.4-3.8
	c0-2,1.4-3.8,3.4-3.8c1.3,0,2,0.6,2.2,1.2V3.3h1.4v9.5c0,0.7,0.1,1.2,0.1,1.3h-1.4C370.4,13.9,370.3,13.6,370.3,13
	C370.3,13.1,370.3,13,370.3,13z M368.2,13.1c1.3,0,2.1-1.1,2.1-2.6S369.5,8,368.2,8s-2.1,1-2.1,2.5S366.8,13.1,368.2,13.1z
	 M380.1,10.5c0,1.6,1,2.5,2.2,2.5c1.3,0,1.8-0.9,2-1.5l1.2,0.5c-0.3,1-1.4,2.2-3.3,2.2c-2.1,0-3.6-1.6-3.6-3.8s1.6-3.8,3.6-3.8
	c1.9,0,2.9,1.2,3.2,2.3l-1.3,0.5c-0.2-0.7-0.7-1.5-1.9-1.5C381.2,8,380.1,8.8,380.1,10.5L380.1,10.5z M394.7,10.5
	c0,2.2-1.5,3.8-3.7,3.8s-3.7-1.6-3.7-3.8s1.5-3.8,3.7-3.8S394.7,8.3,394.7,10.5z M393.2,10.5c0-1.7-1.1-2.6-2.2-2.6
	s-2.2,0.9-2.2,2.6s1.1,2.6,2.2,2.6S393.2,12.2,393.2,10.5z M397.2,14.1V6.9h1.3v1c0.5-0.8,1.4-1.2,2.2-1.2c0.9,0,1.8,0.4,2.2,1.4
	c0.6-1,1.5-1.4,2.4-1.4c1.3,0,2.5,0.9,2.5,2.7v4.7h-1.4V9.6c0-0.9-0.5-1.6-1.5-1.6s-1.7,0.8-1.7,1.8v4.4h-1.4V9.6
	c0-0.9-0.4-1.6-1.5-1.6c-1,0-1.7,0.8-1.7,1.8v4.3H397.2z M410.8,14.1V6.9h1.3v1c0.5-0.8,1.4-1.2,2.2-1.2c0.9,0,1.8,0.4,2.2,1.4
	c0.6-1,1.5-1.4,2.4-1.4c1.3,0,2.5,0.9,2.5,2.7v4.7H420V9.6c0-0.9-0.5-1.6-1.5-1.6s-1.7,0.8-1.7,1.8v4.4h-1.4V9.6
	c0-0.9-0.4-1.6-1.5-1.6c-1,0-1.7,0.8-1.7,1.8v4.3H410.8z M425.1,3.1c0.6,0,1,0.4,1,1s-0.4,1-1,1s-1-0.5-1-1S424.6,3.1,425.1,3.1z
	 M424.4,14.1V6.9h1.4v7.2H424.4z M430.9,6.9h1.6v1.3h-1.6V12c0,0.7,0.3,1,1,1c0.2,0,0.4,0,0.6-0.1v1.2c-0.1,0-0.5,0.1-1,0.1
	c-1.2,0-2-0.8-2-2.1v-4h-1.4V6.9h0.4c0.8,0,1.1-0.5,1.1-1.1V4.6h1.3V6.9z M441,14.1h-1.4V3.3h1.4v4.5c0.5-0.8,1.4-1.1,2.2-1.1
	c1.7,0,2.6,1.2,2.6,2.9v4.6h-1.4V9.8c0-1-0.4-1.8-1.7-1.8c-1.1,0-1.6,0.8-1.7,1.9V14.1z M449.4,3.1c0.6,0,1,0.4,1,1s-0.4,1-1,1
	s-1-0.5-1-1S448.9,3.1,449.4,3.1z M448.7,14.1V6.9h1.4v7.2H448.7z M453.9,11.8c0.1,0.8,0.7,1.3,1.7,1.3c0.8,0,1.2-0.4,1.2-1
	c0-0.4-0.3-0.8-0.9-0.9l-1.2-0.3c-1.1-0.2-1.8-1-1.8-2c0-1.2,1.2-2.3,2.6-2.3c2,0,2.6,1.3,2.7,1.9L457,9c-0.1-0.4-0.4-1.2-1.5-1.2
	c-0.7,0-1.2,0.5-1.2,1c0,0.4,0.3,0.8,0.8,0.9l1.2,0.3c1.3,0.3,2,1.1,2,2.1s-0.9,2.2-2.6,2.2c-2,0-2.8-1.3-2.9-2.1L453.9,11.8
	L453.9,11.8z M462.7,6.9h1.6v1.3h-1.6V12c0,0.7,0.3,1,1,1c0.2,0,0.4,0,0.6-0.1v1.2c-0.1,0-0.5,0.1-1,0.1c-1.2,0-2-0.8-2-2.1v-4h-1.4
	V6.9h0.4c0.8,0,1.1-0.5,1.1-1.1V4.6h1.3C462.7,4.6,462.7,6.9,462.7,6.9z M473.6,10.5c0,2.2-1.5,3.8-3.7,3.8s-3.7-1.6-3.7-3.8
	s1.5-3.8,3.7-3.8S473.6,8.3,473.6,10.5z M472.1,10.5c0-1.7-1.1-2.6-2.2-2.6s-2.2,0.9-2.2,2.6s1.1,2.6,2.2,2.6S472.1,12.2,472.1,10.5
	z M480.1,8.3h-0.6c-1.2,0-2,0.6-2,2.2v3.6h-1.4V6.9h1.4v1.3c0.5-1.1,1.4-1.4,2.2-1.4h0.5v1.5L480.1,8.3z M482.9,17.1l1.8-3.8
	l-3.1-6.4h1.6l2.2,5l2.2-5h1.5l-4.7,10.2C484.4,17.1,482.9,17.1,482.9,17.1z"/>
<path class="st1" d="M330.5,268.5c0,22.6-18.4,41-41,41 M330.5,268.5c0-22.6,18.4-41,41-41h215.1"/>
<circle class="st2" cx="414.9" cy="227.5" r="21"/>
<circle class="st2" cx="511.2" cy="227.5" r="21"/>
<circle class="st2" cx="607.4" cy="227.5" r="21"/>
<path class="st1" d="M119.5,309.5h170"/>
<circle class="st3" cx="140.5" cy="309.5" r="21"/>
<circle class="st3" cx="236.5" cy="309.5" r="21"/>
<path class="st1" d="M272.8,309.5h216.1"/>
<circle class="st4" cx="413.9" cy="309.5" r="21"/>
<ellipse transform="matrix(0.1602 -0.9871 0.9871 0.1602 122.7195 763.2395)" class="st5" cx="509.9" cy="309.5" rx="21" ry="21"/>
<path class="st6" d="M557.4,86.5h100v50h-100V86.5z"/>
<path class="st7" d="M580.6,117.5v-10.6h6.5v1.4h-5v3.4h4.5v1.4h-4.5v4.5h-1.5V117.5z M595.2,115.5c-0.4,1.3-1.6,2.3-3.2,2.3
	c-1.9,0-3.6-1.4-3.6-3.9c0-2.3,1.6-3.8,3.4-3.8c2.2,0,3.5,1.5,3.5,3.8v0.4h-5.4c0,1.3,1,2.2,2.2,2.2s1.8-0.6,2-1.5L595.2,115.5z
	 M593.8,113.2c0-1-0.7-1.8-2-1.8c-1.2,0-1.9,0.9-2,1.8H593.8z M599.6,113.4l1.9-0.3c0.4-0.1,0.6-0.3,0.6-0.5c0-0.7-0.5-1.3-1.6-1.3
	c-1,0-1.5,0.6-1.6,1.5l-1.4-0.3c0.2-1.4,1.4-2.3,3-2.3c2.2,0,3,1.2,3,2.6v3.6c0,0.6,0.1,1,0.1,1.2h-1.4c0-0.2-0.1-0.5-0.1-1
	c-0.3,0.5-1,1.2-2.3,1.2c-1.5,0-2.4-1-2.4-2.2C597.4,114.3,598.3,113.6,599.6,113.4L599.6,113.4z M602.1,114.4v-0.3l-2.2,0.3
	c-0.6,0.1-1.1,0.4-1.1,1.1c0,0.5,0.4,1,1.2,1C601.2,116.6,602.1,116,602.1,114.4z M608.3,110.3h1.6v1.3h-1.6v3.8c0,0.7,0.3,1,1,1
	c0.2,0,0.4,0,0.6-0.1v1.2c-0.1,0-0.5,0.1-1,0.1c-1.2,0-2-0.8-2-2.1v-4h-1.4v-1.3h0.4c0.8,0,1.1-0.5,1.1-1.1V108h1.3L608.3,110.3
	L608.3,110.3z M615.1,117.7c-1.7,0-2.7-1.3-2.7-2.9v-4.5h1.4v4.3c0,1,0.4,1.9,1.6,1.9c1.1,0,1.7-0.8,1.7-1.8v-4.4h1.4v5.9
	c0,0.6,0,1.1,0.1,1.3h-1.4c0-0.2-0.1-0.6-0.1-0.9C616.9,117.4,616,117.7,615.1,117.7z M625.8,111.7h-0.6c-1.2,0-2,0.6-2,2.2v3.6
	h-1.4v-7.2h1.4v1.3c0.5-1.1,1.4-1.4,2.2-1.4h0.5v1.5H625.8z M634.2,115.5c-0.4,1.3-1.6,2.3-3.2,2.3c-1.9,0-3.6-1.4-3.6-3.9
	c0-2.3,1.6-3.8,3.4-3.8c2.2,0,3.5,1.5,3.5,3.8v0.4h-5.4c0,1.3,1,2.2,2.2,2.2s1.8-0.6,2-1.5L634.2,115.5z M632.8,113.2
	c0-1-0.7-1.8-2-1.8c-1.2,0-1.9,0.9-2,1.8H632.8z"/>
<path class="st8" d="M607.4,182.3v-23.5 M618.3,173.6l-10.9,10.9l-10.8-10.9"/>
<path class="st5" d="M459.9,401.5h100v50h-100L459.9,401.5z"/>
<path class="st8" d="M509.9,354.9v23.5 M499,363.6l10.9-10.8l10.9,10.8"/>
<g>
	<path d="M495.7,431.7v-10h2l2.4,7.1c0.2,0.7,0.4,1.2,0.5,1.5c0.1-0.4,0.3-0.9,0.5-1.6l2.4-7h1.8v10H504v-8.4l-2.9,8.4h-1.2
		l-2.9-8.5v8.5H495.7z"/>
	<path d="M512.7,430.8c-0.5,0.4-0.9,0.7-1.3,0.8c-0.4,0.2-0.9,0.2-1.4,0.2c-0.8,0-1.4-0.2-1.8-0.6c-0.4-0.4-0.6-0.9-0.6-1.5
		c0-0.4,0.1-0.7,0.2-1c0.2-0.3,0.4-0.5,0.6-0.7c0.3-0.2,0.6-0.3,0.9-0.4c0.2-0.1,0.6-0.1,1.1-0.2c1-0.1,1.7-0.3,2.2-0.4
		c0-0.2,0-0.3,0-0.3c0-0.5-0.1-0.9-0.3-1.1c-0.3-0.3-0.8-0.4-1.4-0.4c-0.6,0-1,0.1-1.3,0.3c-0.3,0.2-0.5,0.6-0.6,1.1l-1.2-0.2
		c0.1-0.5,0.3-0.9,0.5-1.2c0.3-0.3,0.6-0.6,1.1-0.7c0.5-0.2,1-0.3,1.6-0.3c0.6,0,1.1,0.1,1.5,0.2s0.7,0.3,0.9,0.6
		c0.2,0.2,0.3,0.5,0.4,0.8c0,0.2,0.1,0.6,0.1,1.1v1.6c0,1.1,0,1.9,0.1,2.2c0.1,0.3,0.2,0.6,0.3,0.9h-1.3
		C512.8,431.5,512.7,431.2,512.7,430.8z M512.6,428.1c-0.4,0.2-1.1,0.3-2,0.5c-0.5,0.1-0.9,0.2-1.1,0.2s-0.4,0.2-0.5,0.4
		c-0.1,0.2-0.2,0.4-0.2,0.6c0,0.3,0.1,0.6,0.4,0.8c0.2,0.2,0.6,0.3,1.1,0.3c0.5,0,0.9-0.1,1.3-0.3c0.4-0.2,0.6-0.5,0.8-0.9
		c0.1-0.3,0.2-0.7,0.2-1.2V428.1z"/>
	<path d="M516.4,423.1v-1.4h1.2v1.4H516.4z M516.4,431.7v-7.3h1.2v7.3H516.4z"/>
	<path d="M520.2,431.7v-7.3h1.1v1c0.5-0.8,1.3-1.2,2.3-1.2c0.4,0,0.8,0.1,1.2,0.2c0.4,0.2,0.6,0.4,0.8,0.6s0.3,0.6,0.4,0.9
		c0,0.2,0.1,0.6,0.1,1.2v4.5h-1.2v-4.4c0-0.5,0-0.9-0.1-1.1c-0.1-0.2-0.3-0.4-0.5-0.6c-0.2-0.1-0.5-0.2-0.9-0.2
		c-0.5,0-1,0.2-1.4,0.5c-0.4,0.3-0.6,1-0.6,1.9v4H520.2z"/>
</g>
</svg>
