<svg width="434" xmlns:xlink="http://www.w3.org/1999/xlink" xmlns:ed="https://www.edrawsoft.cn/xml/2017/SVGExtensions/" ed:vSpacing="30" height="150" ed:hSpacing="30" ed:name="页面-1" xmlns="http://www.w3.org/2000/svg" xmlns:ev="http://www.w3.org/2001/xml-events" id="page100" viewBox="0 0 434 150"><style type="text/css"><![CDATA[
g[ed\:togtopicid],g[ed\:hyperlink],g[ed\:comment],g[ed\:note] {cursor:pointer;}
g[id] {-moz-user-select: none;-ms-user-select: none;user-select: none;}
svg text::selection,svg tspan::selection{background-color: #4285f4;color: #ffffff;fill: #ffffff;}
.st2 {fill:#ffffff;font-family:微软雅黑;font-size:11pt}
.st1 {fill:#ffffff;font-family:微软雅黑;font-size:14pt}
.st3 {fill:#ffffff;font-family:微软雅黑;font-size:9pt}
]]></style><defs/><rect width="434" height="150" fill="#1e242f" x="0" y="0"/><path stroke-linecap="round" transform="matrix(1,0,0,1,157.75,83.13)" stroke="#e0a7d3" d="M3.3,0C25.4,0,45.8,0,66.3,0" fill="none" ed:tosuperid="102" stroke-width="2" stroke-linejoin="round" id="103" ed:parentid="101"/><path stroke-linecap="round" transform="matrix(1,0,0,1,308.5,75.44)" stroke="#e0a7d3" d="M-13.5,7.7L3.7,7.7L3.7,-1.7C3.7,-5,6.4,-7.7,9.7,-7.7L13.5,-7.7" fill="none" ed:tosuperid="104" stroke-width="2" stroke-linejoin="round" id="105" ed:parentid="102"/><path stroke-linecap="round" transform="matrix(1,0,0,1,308.5,87.56)" stroke="#e0a7d3" d="M3.7,-4.4L3.7,-1.6C3.7,1.7,6.4,4.4,9.7,4.4L13.5,4.4" fill="none" ed:tosuperid="106" stroke-width="2" stroke-linejoin="round" id="107" ed:parentid="102"/><path stroke-linecap="round" transform="matrix(1,0,0,1,308.5,99.69)" stroke="#e0a7d3" d="M3.7,-16.6L3.7,10.6C3.7,13.9,6.4,16.6,9.7,16.6L13.5,16.6" fill="none" ed:tosuperid="108" stroke-width="2" stroke-linejoin="round" id="109" ed:parentid="102"/><g transform="matrix(1,0,0,1,22,57.13)" ed:layout="map" ed:topictype="mainidea" ed:width="139" id="101" ed:height="52"><path stroke="#50bec1" d="M4,0L135,0C137.7,0,139,1.3,139,4L139,48C139,50.7,137.7,52,135,52L4,52C1.3,52,0,50.7,0,48L0,4C0,1.3,1.3,0,4,0z" fill="none" stroke-width="2" stroke-linejoin="round"/><text class="st1"><tspan style="white-space:pre" x="21" y="31.6">偏导数连续</tspan></text></g><g transform="matrix(1,0,0,1,224,66.63)" ed:layout="rightmap" ed:width="71" id="102" ed:height="33" ed:parentid="101"><path stroke="#e0a7d3" d="M4,0L67,0C69.7,0,71,1.3,71,4L71,29C71,31.7,69.7,33,67,33L4,33C1.3,33,0,31.7,0,29L0,4C0,1.3,1.3,0,4,0z" fill="none" stroke-width="2" stroke-linejoin="round"/><text class="st2"><tspan style="white-space:pre" x="18" y="20.6">可微</tspan></text></g><g transform="matrix(1,0,0,1,322,50)" ed:layout="rightmap" ed:width="42" id="104" ed:height="17.75" ed:parentid="102"><path stroke="#e0a7d3" d="M0,17.8L42,17.8" fill="none" stroke-width="2" stroke-linejoin="round"/><text class="st3"><tspan style="white-space:pre" x="8" y="11.6">连续</tspan></text></g><g transform="matrix(1,0,0,1,322,74.25)" ed:layout="rightmap" ed:width="78" id="106" ed:height="17.75" ed:parentid="102"><path stroke="#e0a7d3" d="M0,17.8L78,17.8" fill="none" stroke-width="2" stroke-linejoin="round"/><text class="st3"><tspan style="white-space:pre" x="8" y="11.6">偏导数存在</tspan></text></g><g transform="matrix(1,0,0,1,322,98.5)" ed:layout="rightmap" ed:width="90" id="108" ed:height="17.75" ed:parentid="102"><path stroke="#e0a7d3" d="M0,17.8L90,17.8" fill="none" stroke-width="2" stroke-linejoin="round"/><text class="st3"><tspan style="white-space:pre" x="8" y="11.6">方向导数存在</tspan></text></g><svg xmlns="http://www.w3.org/2000/svg" width="434" height="110.25"><g transform="translate(84,-272.125) rotate(45)" style="opacity:0.2"><g transform="translate(88.5,146.625) scale(0.9)" fill-rule="nonzero"><path transform="translate(104.8,15.5) rotate(-360) translate(-104.8,-15.5)" stroke="#e9e9e9" d="M 16.8 10.4 L 25.7 1.4 C 27.7 -0.7 31.1 -0.7 33.1 1.4 C 34.1 2.4 34.6 3.7 34.6 5.1 L 34.6 26.7 C 34.6 29.6 32.3 32 29.4 32 C 28 32 26.7 31.4 25.7 30.4 L 16.8 21.4 L 7.9 30.4 C 6.9 31.4 5.6 32 4.2 32 C 1.3 32 -1 29.6 -1 26.7 L -1 5.1 C -1 3.7 -0.5 2.4 0.5 1.4 C 1.5 0.4 2.7 -0.1 4.1 -0.2 L 4.3 -0.2 L 4.3 -0.2 C 5.7 -0.1 6.9 0.4 7.9 1.4 L 16.8 10.4 Z M 106.8 6.5 L 106.8 0.8 C 106.8 -0.4 107.5 -1 108.6 -1 L 110 -1 C 111.1 -1 111.8 -0.3 111.8 0.8 L 111.8 22.4 C 111.8 23.9 111.3 24.6 109.8 25.2 C 108 25.9 105.9 26.3 103.6 26.3 C 98.4 26.3 95.6 23.6 95.6 18.6 L 95.6 13.8 C 95.6 8.8 98.3 6 103.3 6 C 104.3 6 105.5 6.1 106.8 6.5 Z M 149.5 13.8 L 149.5 13.7 C 149.5 11.5 148.8 10.7 146.6 10.7 C 145 10.7 144 11.2 143.3 12.3 C 143.1 12.7 143 12.8 142.8 12.9 C 142.3 13.3 141.8 13.3 141 13 L 140.1 12.6 C 139 12.1 138.6 11.1 139.1 10.1 C 140.5 7.4 143.1 6 146.7 6 C 151.9 6 154.4 8.8 154.4 13.8 L 154.4 22.5 C 154.4 24 154 24.8 152.6 25.3 C 151.2 26 149.2 26.3 146.6 26.3 C 143.7 26.3 141.6 25.8 140.4 24.8 C 139.1 23.7 138.5 22.1 138.5 20 C 138.5 15.5 140.9 13.7 146.8 13.7 C 147.7 13.7 148.6 13.7 149.5 13.8 Z M 162.8 6 C 166.6 6 169.3 7.4 170.5 10.2 C 171 11.2 170.7 12.2 169.6 12.7 L 168.5 13.2 C 167.5 13.6 166.9 13.4 166.2 12.4 L 166.2 12.3 C 165.6 11.2 164.8 10.7 162.9 10.7 C 160.9 10.7 160.1 11.2 160.1 12.1 C 160.1 13.2 160.7 13.5 163.7 13.8 C 166.1 14 167.8 14.5 169 15.3 C 170.4 16.2 171.1 17.8 171.1 19.9 C 171.1 23.9 168.1 26.3 163.2 26.3 C 159.1 26.3 156.3 24.7 155.2 21.6 C 154.7 20.5 155.1 19.5 156.2 19.2 L 157.4 18.7 C 158.3 18.4 159.2 18.8 159.7 19.8 C 160.1 21 161.2 21.6 163.1 21.6 C 165.4 21.6 166.2 21.1 166.2 20.1 C 166.2 19 165.7 18.7 162.8 18.4 C 160.9 18.2 160.1 18.1 158.8 17.6 C 158 17.3 157.4 16.9 156.9 16.5 C 155.9 15.6 155.2 14 155.2 12.2 C 155.2 8.3 158.1 6 162.8 6 Z M 187.1 18 L 187.1 18.7 C 187.1 20.7 188.2 21.7 190.5 21.7 C 192.3 21.7 193.5 21.1 194.2 19.8 C 194.9 18.8 195.8 18.6 196.8 19.2 L 197.6 19.7 C 198.7 20.2 199 21.3 198.3 22.3 C 196.9 25 194.2 26.3 190.4 26.3 C 185.2 26.3 182.2 23.3 182.2 18.3 L 182.2 14.2 C 182.2 9 185.3 6 190.6 6 C 195.8 6 199 9.1 199 13.9 L 199 15.9 C 199 17.2 198.1 18 196.7 18 L 187.1 18 Z M 177.9 6.5 L 181.1 6.5 C 182.3 6.5 182.9 7.2 182.9 8.3 L 182.9 9.5 C 182.9 10.6 182.3 11.3 181.1 11.3 L 177.9 11.3 L 177.9 18.1 C 177.9 19.6 178.1 20.5 178.4 20.9 C 178.8 21.2 179.7 21.4 181.1 21.4 C 182.3 21.4 182.9 22.1 182.9 23.2 L 182.9 24.5 C 182.9 25.6 182.3 26.2 181.1 26.3 C 178.2 26.3 176.1 25.8 174.9 24.5 C 173.6 23.3 173 21.2 173 18.2 L 173 11.3 L 171.2 11.3 C 170.1 11.3 169.5 10.6 169.5 9.5 L 169.5 8.3 C 169.5 7.1 170.1 6.5 171.2 6.5 L 173 6.5 L 173 4.3 C 173 3.1 173.6 2.5 174.7 2.5 L 176.1 2.5 C 177.2 2.5 177.9 3.1 177.9 4.3 L 177.9 6.5 Z M 61 11.2 C 61.1 11.9 61.2 12.6 61.2 13.5 L 61.2 24 C 61.2 25.1 60.6 25.8 59.5 25.8 L 58.1 25.8 C 56.9 25.8 56.3 25.2 56.3 24 L 56.3 13.6 C 56.3 11.6 55.5 10.7 53.6 10.7 C 52.7 10.7 51.9 10.9 51.1 11.1 L 51.1 24 C 51.1 25.2 50.5 25.8 49.3 25.8 L 48 25.8 C 46.8 25.8 46.2 25.1 46.2 24 L 46.2 10 C 46.2 8.5 46.7 7.8 48 7.2 C 49.8 6.4 51.8 6 54 6 C 55.7 6 57.1 6.4 58.3 7.1 C 60.3 6.4 62.1 6 64 6 C 68.6 6 71.1 8.6 71.1 13.5 L 71.1 24 C 71.1 25.1 70.5 25.8 69.4 25.8 L 68 25.8 C 66.8 25.8 66.2 25.2 66.2 24 L 66.2 13.6 C 66.2 11.6 65.5 10.7 63.6 10.7 C 62.8 10.7 61.9 10.9 61 11.2 Z M 83.7 11.2 L 83.7 24 C 83.7 25.2 83.1 25.8 81.9 25.8 L 80.5 25.8 C 79.4 25.8 78.8 25.1 78.8 24 L 78.8 10 C 78.8 8.5 79.2 7.8 80.6 7.2 C 82.5 6.4 84.7 6 87.2 6 C 92.2 6 94.9 8.7 94.9 13.6 L 94.9 24 C 94.9 25.2 94.2 25.8 93.1 25.8 L 91.7 25.8 C 90.6 25.8 89.9 25.2 89.9 24 L 89.9 13.7 C 89.9 11.6 89 10.7 86.9 10.7 C 85.7 10.7 84.7 10.9 83.7 11.2 Z M 75.6 6.5 C 76.8 6.5 77.4 7.1 77.4 8.3 L 77.4 24 C 77.4 25.2 76.8 25.8 75.6 25.8 L 74.2 25.8 C 73.1 25.8 72.4 25.2 72.4 24 L 72.4 8.3 C 72.4 7.1 73.1 6.5 74.2 6.5 L 75.6 6.5 Z M 127.9 11.2 C 128 11.9 128.1 12.6 128.1 13.5 L 128.1 24 C 128.1 25.1 127.5 25.8 126.4 25.8 L 125 25.8 C 123.8 25.8 123.2 25.2 123.2 24 L 123.2 13.6 C 123.2 11.6 122.4 10.7 120.5 10.7 C 119.6 10.7 118.8 10.9 118 11.1 L 118 24 C 118 25.2 117.4 25.8 116.2 25.8 L 114.8 25.8 C 113.7 25.8 113.1 25.1 113.1 24 L 113.1 10 C 113.1 8.5 113.6 7.8 114.9 7.2 C 116.7 6.4 118.7 6 120.9 6 C 122.6 6 124 6.4 125.2 7.1 C 127.2 6.4 129 6 130.9 6 C 135.5 6 138 8.6 138 13.5 L 138 24 C 138 25.1 137.4 25.8 136.3 25.8 L 134.9 25.8 C 133.7 25.8 133.1 25.2 133.1 24 L 133.1 13.6 C 133.1 11.6 132.4 10.7 130.5 10.7 C 129.7 10.7 128.8 10.9 127.9 11.2 Z M 204.5 11.2 L 204.5 24 C 204.5 25.2 203.8 25.8 202.7 25.8 L 201.3 25.8 C 200.2 25.8 199.5 25.1 199.5 24 L 199.5 9.9 C 199.5 8.4 200 7.7 201.4 7.1 C 203.2 6.4 205.3 6 207.8 6 L 208.8 6 C 210 6 210.6 6.7 210.6 7.8 L 210.6 8.9 C 210.6 10.1 210 10.7 208.8 10.7 L 207.7 10.7 C 206.6 10.7 205.5 10.9 204.5 11.2 Z M 27 11 L 26.6 11.4 L 22.2 15.9 L 27 20.8 L 27 11 Z M 6.6 11 L 6.6 20.8 L 11.4 15.9 L 6.6 11 Z M 149.5 21.5 L 149.5 18.3 C 148.1 18.2 147.1 18.1 146.4 18.1 C 144 18.1 143.4 18.6 143.4 20 C 143.4 21.4 144 21.8 146.4 21.8 C 147.8 21.8 148.9 21.7 149.5 21.5 Z M 107.1 21.1 C 107.1 21.1 107.1 21.1 107.1 21.1 C 107.1 21.1 107.1 21.1 107.1 21.1 Z M 106.8 21.1 L 106.8 11.2 C 105.7 10.9 104.7 10.7 103.8 10.7 C 101.5 10.7 100.6 11.7 100.6 13.9 L 100.6 18.5 C 100.6 20.6 101.6 21.5 103.9 21.5 C 105 21.5 106 21.4 106.8 21.1 Z M 187.1 13.7 L 194 13.7 C 194 11.6 192.9 10.5 190.6 10.5 C 188.2 10.5 187.1 11.6 187.1 13.7 Z M 75 0.2 C 76.8 0.2 77.6 1 77.6 2.8 L 77.6 3 C 77.6 4.8 76.8 5.7 75 5.7 L 74.8 5.7 C 73.1 5.7 72.3 4.8 72.3 3 L 72.3 2.8 C 72.3 1 73.1 0.2 74.8 0.2 L 75 0.2 Z" fill="#b8b8b8" stroke-width="2"/><path transform="translate(104.8,15.5) rotate(-360) translate(-104.8,-15.5)" d="M 4.3 0.8 C 5.3 0.8 6.4 1.3 7.2 2.1 L 7.2 2.1 L 16.8 11.9 L 16.8 11.9 L 26.4 2.1 C 28.1 0.4 30.7 0.4 32.4 2.1 C 33.2 2.9 33.6 4 33.6 5.1 L 33.6 26.7 C 33.6 29.1 31.7 31 29.4 31 C 28.3 31 27.2 30.5 26.4 29.7 L 16.8 19.9 L 7.2 29.7 C 6.4 30.5 5.3 31 4.2 31 C 1.9 31 0 29.1 0 26.7 L 0 5.1 C 0 4 0.4 2.9 1.2 2.1 C 2 1.3 3.1 0.8 4.1 0.8 Z M 110 0 C 110.6 0 110.8 0.2 110.8 0.8 L 110.8 22.4 C 110.8 23.5 110.5 23.8 109.5 24.3 C 107.7 25 105.8 25.3 103.6 25.3 C 99 25.3 96.6 23 96.6 18.6 L 96.6 13.8 C 96.6 9.4 98.9 7 103.3 7 C 104.5 7 106 7.2 107.8 7.7 L 107.8 0.8 C 107.8 0.2 108.1 0 108.6 0 L 110 0 Z M 146.7 7 C 151.6 7 153.4 9.6 153.4 13.8 L 153.4 22.5 C 153.4 23.7 153.2 24 152.2 24.4 C 150.9 25 149.1 25.3 146.6 25.3 C 143.9 25.3 142 24.9 141 24 C 140 23.1 139.5 21.8 139.5 20 C 139.5 16.1 141.5 14.7 146.8 14.7 C 147.9 14.7 149.2 14.8 150.5 14.9 L 150.5 13.7 C 150.5 11.1 149.5 9.7 146.6 9.7 C 144.7 9.7 143.4 10.4 142.5 11.7 C 142.1 12.3 142.1 12.4 141.5 12.1 L 140.4 11.7 C 139.9 11.4 139.8 11.1 140 10.5 C 141.2 8.2 143.4 7 146.7 7 Z M 162.8 7 C 166.3 7 168.6 8.2 169.6 10.6 C 169.9 11.2 169.8 11.6 169.2 11.8 L 168.1 12.3 C 167.5 12.5 167.4 12.4 167.1 11.9 C 166.4 10.5 165.2 9.7 162.9 9.7 C 160.4 9.7 159.1 10.5 159.1 12.1 C 159.1 14.1 160.4 14.5 163.6 14.8 C 165.7 15 167.4 15.4 168.5 16.1 C 169.5 16.8 170.1 18.1 170.1 19.9 C 170.1 23.2 167.7 25.3 163.2 25.3 C 159.5 25.3 157.1 23.9 156.1 21.2 C 155.8 20.6 156 20.3 156.6 20.1 L 157.7 19.7 C 158.2 19.5 158.5 19.7 158.7 20.2 C 159.3 21.8 160.8 22.6 163.1 22.6 C 165.8 22.6 167.2 21.8 167.2 20.1 C 167.2 18.2 166 17.7 162.9 17.4 C 161.3 17.3 160.5 17.1 159.1 16.6 C 158.5 16.4 158 16.1 157.6 15.8 C 156.9 15.1 156.2 13.8 156.2 12.2 C 156.2 9 158.5 7 162.8 7 Z M 190.6 7 C 195.4 7 198 9.8 198 13.9 L 198 15.9 C 198 16.6 197.6 17 196.7 17 L 186.1 17 L 186.1 18.7 C 186.1 21.2 187.6 22.7 190.5 22.7 C 192.6 22.7 194.1 21.9 195 20.4 C 195.4 19.8 195.7 19.7 196.3 20.1 L 197.2 20.5 C 197.7 20.8 197.8 21.3 197.5 21.8 C 196.2 24.2 193.8 25.3 190.4 25.3 C 185.6 25.3 183.2 22.6 183.2 18.3 L 183.2 14.2 C 183.2 9.6 185.8 7 190.6 7 Z M 176.1 3.5 C 176.6 3.5 176.9 3.7 176.9 4.3 L 176.9 7.5 L 181.1 7.5 C 181.7 7.5 181.9 7.7 181.9 8.3 L 181.9 9.5 C 181.9 10 181.7 10.3 181.1 10.3 L 176.9 10.3 L 176.9 18.1 C 176.9 19.9 177.2 21 177.7 21.6 C 178.3 22.1 179.4 22.4 181.1 22.4 C 181.7 22.4 181.9 22.6 181.9 23.2 L 181.9 24.5 C 181.9 25 181.7 25.2 181.1 25.3 C 178.4 25.3 176.6 24.9 175.6 23.8 C 174.5 22.8 174 20.9 174 18.2 L 174 10.3 L 171.2 10.3 C 170.7 10.3 170.5 10 170.5 9.5 L 170.5 8.3 C 170.5 7.7 170.7 7.5 171.2 7.5 L 174 7.5 L 174 4.3 C 174 3.7 174.2 3.5 174.7 3.5 L 176.1 3.5 Z M 64 7 C 68.1 7 70.1 9.2 70.1 13.5 L 70.1 24 C 70.1 24.6 69.9 24.8 69.4 24.8 L 68 24.8 C 67.4 24.8 67.2 24.6 67.2 24 L 67.2 13.6 C 67.2 11 66 9.7 63.6 9.7 C 62.4 9.7 61.1 10 59.7 10.7 C 60 11.4 60.2 12.3 60.2 13.5 L 60.2 24 C 60.2 24.6 60 24.8 59.5 24.8 L 58.1 24.8 C 57.5 24.8 57.3 24.6 57.3 24 L 57.3 13.6 C 57.3 11 56.1 9.7 53.6 9.7 C 52.5 9.7 51.5 9.9 50.5 10.3 C 50.2 10.5 50.1 10.7 50.1 11 L 50.1 24 C 50.1 24.6 49.9 24.8 49.3 24.8 L 48 24.8 C 47.4 24.8 47.2 24.6 47.2 24 L 47.2 10 C 47.2 8.9 47.4 8.5 48.4 8.1 C 50.1 7.4 51.9 7 54 7 C 55.8 7 57.1 7.4 58.1 8.3 C 60.2 7.4 62.1 7 64 7 Z M 87.2 7 C 91.7 7 93.9 9.2 93.9 13.6 L 93.9 24 C 93.9 24.6 93.7 24.8 93.1 24.8 L 91.7 24.8 C 91.2 24.8 90.9 24.6 90.9 24 L 90.9 13.7 C 90.9 11.1 89.6 9.7 86.9 9.7 C 85.5 9.7 84.3 9.9 83.1 10.4 C 82.8 10.5 82.7 10.7 82.7 11 L 82.7 24 C 82.7 24.6 82.5 24.8 81.9 24.8 L 80.5 24.8 C 80 24.8 79.8 24.6 79.8 24 L 79.8 10 C 79.8 8.9 80 8.6 81 8.1 C 82.8 7.4 84.9 7 87.2 7 Z M 75.6 7.5 C 76.2 7.5 76.4 7.7 76.4 8.3 L 76.4 24 C 76.4 24.6 76.2 24.8 75.6 24.8 L 74.2 24.8 C 73.6 24.8 73.4 24.6 73.4 24 L 73.4 8.3 C 73.4 7.7 73.6 7.5 74.2 7.5 L 75.6 7.5 Z M 130.9 7 C 135 7 137 9.2 137 13.5 L 137 24 C 137 24.6 136.8 24.8 136.3 24.8 L 134.9 24.8 C 134.3 24.8 134.1 24.6 134.1 24 L 134.1 13.6 C 134.1 11 132.9 9.7 130.5 9.7 C 129.3 9.7 128 10 126.6 10.7 C 126.9 11.4 127.1 12.3 127.1 13.5 L 127.1 24 C 127.1 24.6 126.9 24.8 126.4 24.8 L 125 24.8 C 124.4 24.8 124.2 24.6 124.2 24 L 124.2 13.6 C 124.2 11 123 9.7 120.5 9.7 C 119.4 9.7 118.4 9.9 117.4 10.3 C 117.1 10.5 117 10.7 117 11 L 117 24 C 117 24.6 116.8 24.8 116.2 24.8 L 114.8 24.8 C 114.3 24.8 114.1 24.6 114.1 24 L 114.1 10 C 114.1 8.9 114.3 8.5 115.3 8.1 C 117 7.4 118.8 7 120.9 7 C 122.7 7 124 7.4 125 8.3 C 127.1 7.4 129 7 130.9 7 Z M 208.8 7 C 209.4 7 209.6 7.2 209.6 7.8 L 209.6 8.9 C 209.6 9.5 209.4 9.7 208.8 9.7 L 207.7 9.7 C 206.4 9.7 205.1 9.9 203.9 10.3 C 203.6 10.4 203.5 10.7 203.5 11 L 203.5 24 C 203.5 24.6 203.3 24.8 202.7 24.8 L 201.3 24.8 C 200.7 24.8 200.5 24.6 200.5 24 L 200.5 9.9 C 200.5 8.8 200.8 8.5 201.8 8 C 203.4 7.4 205.4 7 207.8 7 L 208.8 7 Z M 28 8.5 L 25.9 10.7 L 20.8 15.9 L 27.6 22.9 L 28 23.3 L 28 8.5 Z M 5.6 8.5 L 5.6 23.3 L 12.8 15.9 L 12.8 15.9 L 5.6 8.5 Z M 146.4 17.1 C 143.4 17.1 142.4 18 142.4 20 C 142.4 21.9 143.3 22.8 146.4 22.8 C 148 22.8 149.2 22.6 150 22.4 C 150.3 22.2 150.5 22 150.5 21.6 L 150.5 17.4 C 148.7 17.3 147.4 17.1 146.4 17.1 Z M 103.8 9.7 C 101 9.7 99.6 11.2 99.6 13.9 L 99.6 18.5 C 99.6 21.2 101 22.5 103.9 22.5 C 105.2 22.5 106.4 22.4 107.4 22 C 107.7 21.9 107.8 21.7 107.8 21.4 L 107.8 10.5 C 106.3 10 104.9 9.7 103.8 9.7 Z M 190.6 9.5 C 187.7 9.5 186.1 11.1 186.1 13.8 L 186.1 14.7 L 195 14.7 L 195 13.8 C 195 11.1 193.5 9.5 190.6 9.5 Z M 75 1.2 C 76.2 1.2 76.6 1.6 76.6 2.8 L 76.6 3 C 76.6 4.3 76.2 4.7 75 4.7 L 74.8 4.7 C 73.6 4.7 73.3 4.3 73.3 3 L 73.3 2.8 C 73.3 1.6 73.6 1.2 74.8 1.2 L 75 1.2 Z" fill="#8f8f8f"/></g><g transform="translate(438.5,146.625) scale(0.9)" fill-rule="nonzero"><path transform="translate(104.8,15.5) rotate(-360) translate(-104.8,-15.5)" stroke="#e9e9e9" d="M 16.8 10.4 L 25.7 1.4 C 27.7 -0.7 31.1 -0.7 33.1 1.4 C 34.1 2.4 34.6 3.7 34.6 5.1 L 34.6 26.7 C 34.6 29.6 32.3 32 29.4 32 C 28 32 26.7 31.4 25.7 30.4 L 16.8 21.4 L 7.9 30.4 C 6.9 31.4 5.6 32 4.2 32 C 1.3 32 -1 29.6 -1 26.7 L -1 5.1 C -1 3.7 -0.5 2.4 0.5 1.4 C 1.5 0.4 2.7 -0.1 4.1 -0.2 L 4.3 -0.2 L 4.3 -0.2 C 5.7 -0.1 6.9 0.4 7.9 1.4 L 16.8 10.4 Z M 106.8 6.5 L 106.8 0.8 C 106.8 -0.4 107.5 -1 108.6 -1 L 110 -1 C 111.1 -1 111.8 -0.3 111.8 0.8 L 111.8 22.4 C 111.8 23.9 111.3 24.6 109.8 25.2 C 108 25.9 105.9 26.3 103.6 26.3 C 98.4 26.3 95.6 23.6 95.6 18.6 L 95.6 13.8 C 95.6 8.8 98.3 6 103.3 6 C 104.3 6 105.5 6.1 106.8 6.5 Z M 149.5 13.8 L 149.5 13.7 C 149.5 11.5 148.8 10.7 146.6 10.7 C 145 10.7 144 11.2 143.3 12.3 C 143.1 12.7 143 12.8 142.8 12.9 C 142.3 13.3 141.8 13.3 141 13 L 140.1 12.6 C 139 12.1 138.6 11.1 139.1 10.1 C 140.5 7.4 143.1 6 146.7 6 C 151.9 6 154.4 8.8 154.4 13.8 L 154.4 22.5 C 154.4 24 154 24.8 152.6 25.3 C 151.2 26 149.2 26.3 146.6 26.3 C 143.7 26.3 141.6 25.8 140.4 24.8 C 139.1 23.7 138.5 22.1 138.5 20 C 138.5 15.5 140.9 13.7 146.8 13.7 C 147.7 13.7 148.6 13.7 149.5 13.8 Z M 162.8 6 C 166.6 6 169.3 7.4 170.5 10.2 C 171 11.2 170.7 12.2 169.6 12.7 L 168.5 13.2 C 167.5 13.6 166.9 13.4 166.2 12.4 L 166.2 12.3 C 165.6 11.2 164.8 10.7 162.9 10.7 C 160.9 10.7 160.1 11.2 160.1 12.1 C 160.1 13.2 160.7 13.5 163.7 13.8 C 166.1 14 167.8 14.5 169 15.3 C 170.4 16.2 171.1 17.8 171.1 19.9 C 171.1 23.9 168.1 26.3 163.2 26.3 C 159.1 26.3 156.3 24.7 155.2 21.6 C 154.7 20.5 155.1 19.5 156.2 19.2 L 157.4 18.7 C 158.3 18.4 159.2 18.8 159.7 19.8 C 160.1 21 161.2 21.6 163.1 21.6 C 165.4 21.6 166.2 21.1 166.2 20.1 C 166.2 19 165.7 18.7 162.8 18.4 C 160.9 18.2 160.1 18.1 158.8 17.6 C 158 17.3 157.4 16.9 156.9 16.5 C 155.9 15.6 155.2 14 155.2 12.2 C 155.2 8.3 158.1 6 162.8 6 Z M 187.1 18 L 187.1 18.7 C 187.1 20.7 188.2 21.7 190.5 21.7 C 192.3 21.7 193.5 21.1 194.2 19.8 C 194.9 18.8 195.8 18.6 196.8 19.2 L 197.6 19.7 C 198.7 20.2 199 21.3 198.3 22.3 C 196.9 25 194.2 26.3 190.4 26.3 C 185.2 26.3 182.2 23.3 182.2 18.3 L 182.2 14.2 C 182.2 9 185.3 6 190.6 6 C 195.8 6 199 9.1 199 13.9 L 199 15.9 C 199 17.2 198.1 18 196.7 18 L 187.1 18 Z M 177.9 6.5 L 181.1 6.5 C 182.3 6.5 182.9 7.2 182.9 8.3 L 182.9 9.5 C 182.9 10.6 182.3 11.3 181.1 11.3 L 177.9 11.3 L 177.9 18.1 C 177.9 19.6 178.1 20.5 178.4 20.9 C 178.8 21.2 179.7 21.4 181.1 21.4 C 182.3 21.4 182.9 22.1 182.9 23.2 L 182.9 24.5 C 182.9 25.6 182.3 26.2 181.1 26.3 C 178.2 26.3 176.1 25.8 174.9 24.5 C 173.6 23.3 173 21.2 173 18.2 L 173 11.3 L 171.2 11.3 C 170.1 11.3 169.5 10.6 169.5 9.5 L 169.5 8.3 C 169.5 7.1 170.1 6.5 171.2 6.5 L 173 6.5 L 173 4.3 C 173 3.1 173.6 2.5 174.7 2.5 L 176.1 2.5 C 177.2 2.5 177.9 3.1 177.9 4.3 L 177.9 6.5 Z M 61 11.2 C 61.1 11.9 61.2 12.6 61.2 13.5 L 61.2 24 C 61.2 25.1 60.6 25.8 59.5 25.8 L 58.1 25.8 C 56.9 25.8 56.3 25.2 56.3 24 L 56.3 13.6 C 56.3 11.6 55.5 10.7 53.6 10.7 C 52.7 10.7 51.9 10.9 51.1 11.1 L 51.1 24 C 51.1 25.2 50.5 25.8 49.3 25.8 L 48 25.8 C 46.8 25.8 46.2 25.1 46.2 24 L 46.2 10 C 46.2 8.5 46.7 7.8 48 7.2 C 49.8 6.4 51.8 6 54 6 C 55.7 6 57.1 6.4 58.3 7.1 C 60.3 6.4 62.1 6 64 6 C 68.6 6 71.1 8.6 71.1 13.5 L 71.1 24 C 71.1 25.1 70.5 25.8 69.4 25.8 L 68 25.8 C 66.8 25.8 66.2 25.2 66.2 24 L 66.2 13.6 C 66.2 11.6 65.5 10.7 63.6 10.7 C 62.8 10.7 61.9 10.9 61 11.2 Z M 83.7 11.2 L 83.7 24 C 83.7 25.2 83.1 25.8 81.9 25.8 L 80.5 25.8 C 79.4 25.8 78.8 25.1 78.8 24 L 78.8 10 C 78.8 8.5 79.2 7.8 80.6 7.2 C 82.5 6.4 84.7 6 87.2 6 C 92.2 6 94.9 8.7 94.9 13.6 L 94.9 24 C 94.9 25.2 94.2 25.8 93.1 25.8 L 91.7 25.8 C 90.6 25.8 89.9 25.2 89.9 24 L 89.9 13.7 C 89.9 11.6 89 10.7 86.9 10.7 C 85.7 10.7 84.7 10.9 83.7 11.2 Z M 75.6 6.5 C 76.8 6.5 77.4 7.1 77.4 8.3 L 77.4 24 C 77.4 25.2 76.8 25.8 75.6 25.8 L 74.2 25.8 C 73.1 25.8 72.4 25.2 72.4 24 L 72.4 8.3 C 72.4 7.1 73.1 6.5 74.2 6.5 L 75.6 6.5 Z M 127.9 11.2 C 128 11.9 128.1 12.6 128.1 13.5 L 128.1 24 C 128.1 25.1 127.5 25.8 126.4 25.8 L 125 25.8 C 123.8 25.8 123.2 25.2 123.2 24 L 123.2 13.6 C 123.2 11.6 122.4 10.7 120.5 10.7 C 119.6 10.7 118.8 10.9 118 11.1 L 118 24 C 118 25.2 117.4 25.8 116.2 25.8 L 114.8 25.8 C 113.7 25.8 113.1 25.1 113.1 24 L 113.1 10 C 113.1 8.5 113.6 7.8 114.9 7.2 C 116.7 6.4 118.7 6 120.9 6 C 122.6 6 124 6.4 125.2 7.1 C 127.2 6.4 129 6 130.9 6 C 135.5 6 138 8.6 138 13.5 L 138 24 C 138 25.1 137.4 25.8 136.3 25.8 L 134.9 25.8 C 133.7 25.8 133.1 25.2 133.1 24 L 133.1 13.6 C 133.1 11.6 132.4 10.7 130.5 10.7 C 129.7 10.7 128.8 10.9 127.9 11.2 Z M 204.5 11.2 L 204.5 24 C 204.5 25.2 203.8 25.8 202.7 25.8 L 201.3 25.8 C 200.2 25.8 199.5 25.1 199.5 24 L 199.5 9.9 C 199.5 8.4 200 7.7 201.4 7.1 C 203.2 6.4 205.3 6 207.8 6 L 208.8 6 C 210 6 210.6 6.7 210.6 7.8 L 210.6 8.9 C 210.6 10.1 210 10.7 208.8 10.7 L 207.7 10.7 C 206.6 10.7 205.5 10.9 204.5 11.2 Z M 27 11 L 26.6 11.4 L 22.2 15.9 L 27 20.8 L 27 11 Z M 6.6 11 L 6.6 20.8 L 11.4 15.9 L 6.6 11 Z M 149.5 21.5 L 149.5 18.3 C 148.1 18.2 147.1 18.1 146.4 18.1 C 144 18.1 143.4 18.6 143.4 20 C 143.4 21.4 144 21.8 146.4 21.8 C 147.8 21.8 148.9 21.7 149.5 21.5 Z M 107.1 21.1 C 107.1 21.1 107.1 21.1 107.1 21.1 C 107.1 21.1 107.1 21.1 107.1 21.1 Z M 106.8 21.1 L 106.8 11.2 C 105.7 10.9 104.7 10.7 103.8 10.7 C 101.5 10.7 100.6 11.7 100.6 13.9 L 100.6 18.5 C 100.6 20.6 101.6 21.5 103.9 21.5 C 105 21.5 106 21.4 106.8 21.1 Z M 187.1 13.7 L 194 13.7 C 194 11.6 192.9 10.5 190.6 10.5 C 188.2 10.5 187.1 11.6 187.1 13.7 Z M 75 0.2 C 76.8 0.2 77.6 1 77.6 2.8 L 77.6 3 C 77.6 4.8 76.8 5.7 75 5.7 L 74.8 5.7 C 73.1 5.7 72.3 4.8 72.3 3 L 72.3 2.8 C 72.3 1 73.1 0.2 74.8 0.2 L 75 0.2 Z" fill="#b8b8b8" stroke-width="2"/><path transform="translate(104.8,15.5) rotate(-360) translate(-104.8,-15.5)" d="M 4.3 0.8 C 5.3 0.8 6.4 1.3 7.2 2.1 L 7.2 2.1 L 16.8 11.9 L 16.8 11.9 L 26.4 2.1 C 28.1 0.4 30.7 0.4 32.4 2.1 C 33.2 2.9 33.6 4 33.6 5.1 L 33.6 26.7 C 33.6 29.1 31.7 31 29.4 31 C 28.3 31 27.2 30.5 26.4 29.7 L 16.8 19.9 L 7.2 29.7 C 6.4 30.5 5.3 31 4.2 31 C 1.9 31 0 29.1 0 26.7 L 0 5.1 C 0 4 0.4 2.9 1.2 2.1 C 2 1.3 3.1 0.8 4.1 0.8 Z M 110 0 C 110.6 0 110.8 0.2 110.8 0.8 L 110.8 22.4 C 110.8 23.5 110.5 23.8 109.5 24.3 C 107.7 25 105.8 25.3 103.6 25.3 C 99 25.3 96.6 23 96.6 18.6 L 96.6 13.8 C 96.6 9.4 98.9 7 103.3 7 C 104.5 7 106 7.2 107.8 7.7 L 107.8 0.8 C 107.8 0.2 108.1 0 108.6 0 L 110 0 Z M 146.7 7 C 151.6 7 153.4 9.6 153.4 13.8 L 153.4 22.5 C 153.4 23.7 153.2 24 152.2 24.4 C 150.9 25 149.1 25.3 146.6 25.3 C 143.9 25.3 142 24.9 141 24 C 140 23.1 139.5 21.8 139.5 20 C 139.5 16.1 141.5 14.7 146.8 14.7 C 147.9 14.7 149.2 14.8 150.5 14.9 L 150.5 13.7 C 150.5 11.1 149.5 9.7 146.6 9.7 C 144.7 9.7 143.4 10.4 142.5 11.7 C 142.1 12.3 142.1 12.4 141.5 12.1 L 140.4 11.7 C 139.9 11.4 139.8 11.1 140 10.5 C 141.2 8.2 143.4 7 146.7 7 Z M 162.8 7 C 166.3 7 168.6 8.2 169.6 10.6 C 169.9 11.2 169.8 11.6 169.2 11.8 L 168.1 12.3 C 167.5 12.5 167.4 12.4 167.1 11.9 C 166.4 10.5 165.2 9.7 162.9 9.7 C 160.4 9.7 159.1 10.5 159.1 12.1 C 159.1 14.1 160.4 14.5 163.6 14.8 C 165.7 15 167.4 15.4 168.5 16.1 C 169.5 16.8 170.1 18.1 170.1 19.9 C 170.1 23.2 167.7 25.3 163.2 25.3 C 159.5 25.3 157.1 23.9 156.1 21.2 C 155.8 20.6 156 20.3 156.6 20.1 L 157.7 19.7 C 158.2 19.5 158.5 19.7 158.7 20.2 C 159.3 21.8 160.8 22.6 163.1 22.6 C 165.8 22.6 167.2 21.8 167.2 20.1 C 167.2 18.2 166 17.7 162.9 17.4 C 161.3 17.3 160.5 17.1 159.1 16.6 C 158.5 16.4 158 16.1 157.6 15.8 C 156.9 15.1 156.2 13.8 156.2 12.2 C 156.2 9 158.5 7 162.8 7 Z M 190.6 7 C 195.4 7 198 9.8 198 13.9 L 198 15.9 C 198 16.6 197.6 17 196.7 17 L 186.1 17 L 186.1 18.7 C 186.1 21.2 187.6 22.7 190.5 22.7 C 192.6 22.7 194.1 21.9 195 20.4 C 195.4 19.8 195.7 19.7 196.3 20.1 L 197.2 20.5 C 197.7 20.8 197.8 21.3 197.5 21.8 C 196.2 24.2 193.8 25.3 190.4 25.3 C 185.6 25.3 183.2 22.6 183.2 18.3 L 183.2 14.2 C 183.2 9.6 185.8 7 190.6 7 Z M 176.1 3.5 C 176.6 3.5 176.9 3.7 176.9 4.3 L 176.9 7.5 L 181.1 7.5 C 181.7 7.5 181.9 7.7 181.9 8.3 L 181.9 9.5 C 181.9 10 181.7 10.3 181.1 10.3 L 176.9 10.3 L 176.9 18.1 C 176.9 19.9 177.2 21 177.7 21.6 C 178.3 22.1 179.4 22.4 181.1 22.4 C 181.7 22.4 181.9 22.6 181.9 23.2 L 181.9 24.5 C 181.9 25 181.7 25.2 181.1 25.3 C 178.4 25.3 176.6 24.9 175.6 23.8 C 174.5 22.8 174 20.9 174 18.2 L 174 10.3 L 171.2 10.3 C 170.7 10.3 170.5 10 170.5 9.5 L 170.5 8.3 C 170.5 7.7 170.7 7.5 171.2 7.5 L 174 7.5 L 174 4.3 C 174 3.7 174.2 3.5 174.7 3.5 L 176.1 3.5 Z M 64 7 C 68.1 7 70.1 9.2 70.1 13.5 L 70.1 24 C 70.1 24.6 69.9 24.8 69.4 24.8 L 68 24.8 C 67.4 24.8 67.2 24.6 67.2 24 L 67.2 13.6 C 67.2 11 66 9.7 63.6 9.7 C 62.4 9.7 61.1 10 59.7 10.7 C 60 11.4 60.2 12.3 60.2 13.5 L 60.2 24 C 60.2 24.6 60 24.8 59.5 24.8 L 58.1 24.8 C 57.5 24.8 57.3 24.6 57.3 24 L 57.3 13.6 C 57.3 11 56.1 9.7 53.6 9.7 C 52.5 9.7 51.5 9.9 50.5 10.3 C 50.2 10.5 50.1 10.7 50.1 11 L 50.1 24 C 50.1 24.6 49.9 24.8 49.3 24.8 L 48 24.8 C 47.4 24.8 47.2 24.6 47.2 24 L 47.2 10 C 47.2 8.9 47.4 8.5 48.4 8.1 C 50.1 7.4 51.9 7 54 7 C 55.8 7 57.1 7.4 58.1 8.3 C 60.2 7.4 62.1 7 64 7 Z M 87.2 7 C 91.7 7 93.9 9.2 93.9 13.6 L 93.9 24 C 93.9 24.6 93.7 24.8 93.1 24.8 L 91.7 24.8 C 91.2 24.8 90.9 24.6 90.9 24 L 90.9 13.7 C 90.9 11.1 89.6 9.7 86.9 9.7 C 85.5 9.7 84.3 9.9 83.1 10.4 C 82.8 10.5 82.7 10.7 82.7 11 L 82.7 24 C 82.7 24.6 82.5 24.8 81.9 24.8 L 80.5 24.8 C 80 24.8 79.8 24.6 79.8 24 L 79.8 10 C 79.8 8.9 80 8.6 81 8.1 C 82.8 7.4 84.9 7 87.2 7 Z M 75.6 7.5 C 76.2 7.5 76.4 7.7 76.4 8.3 L 76.4 24 C 76.4 24.6 76.2 24.8 75.6 24.8 L 74.2 24.8 C 73.6 24.8 73.4 24.6 73.4 24 L 73.4 8.3 C 73.4 7.7 73.6 7.5 74.2 7.5 L 75.6 7.5 Z M 130.9 7 C 135 7 137 9.2 137 13.5 L 137 24 C 137 24.6 136.8 24.8 136.3 24.8 L 134.9 24.8 C 134.3 24.8 134.1 24.6 134.1 24 L 134.1 13.6 C 134.1 11 132.9 9.7 130.5 9.7 C 129.3 9.7 128 10 126.6 10.7 C 126.9 11.4 127.1 12.3 127.1 13.5 L 127.1 24 C 127.1 24.6 126.9 24.8 126.4 24.8 L 125 24.8 C 124.4 24.8 124.2 24.6 124.2 24 L 124.2 13.6 C 124.2 11 123 9.7 120.5 9.7 C 119.4 9.7 118.4 9.9 117.4 10.3 C 117.1 10.5 117 10.7 117 11 L 117 24 C 117 24.6 116.8 24.8 116.2 24.8 L 114.8 24.8 C 114.3 24.8 114.1 24.6 114.1 24 L 114.1 10 C 114.1 8.9 114.3 8.5 115.3 8.1 C 117 7.4 118.8 7 120.9 7 C 122.7 7 124 7.4 125 8.3 C 127.1 7.4 129 7 130.9 7 Z M 208.8 7 C 209.4 7 209.6 7.2 209.6 7.8 L 209.6 8.9 C 209.6 9.5 209.4 9.7 208.8 9.7 L 207.7 9.7 C 206.4 9.7 205.1 9.9 203.9 10.3 C 203.6 10.4 203.5 10.7 203.5 11 L 203.5 24 C 203.5 24.6 203.3 24.8 202.7 24.8 L 201.3 24.8 C 200.7 24.8 200.5 24.6 200.5 24 L 200.5 9.9 C 200.5 8.8 200.8 8.5 201.8 8 C 203.4 7.4 205.4 7 207.8 7 L 208.8 7 Z M 28 8.5 L 25.9 10.7 L 20.8 15.9 L 27.6 22.9 L 28 23.3 L 28 8.5 Z M 5.6 8.5 L 5.6 23.3 L 12.8 15.9 L 12.8 15.9 L 5.6 8.5 Z M 146.4 17.1 C 143.4 17.1 142.4 18 142.4 20 C 142.4 21.9 143.3 22.8 146.4 22.8 C 148 22.8 149.2 22.6 150 22.4 C 150.3 22.2 150.5 22 150.5 21.6 L 150.5 17.4 C 148.7 17.3 147.4 17.1 146.4 17.1 Z M 103.8 9.7 C 101 9.7 99.6 11.2 99.6 13.9 L 99.6 18.5 C 99.6 21.2 101 22.5 103.9 22.5 C 105.2 22.5 106.4 22.4 107.4 22 C 107.7 21.9 107.8 21.7 107.8 21.4 L 107.8 10.5 C 106.3 10 104.9 9.7 103.8 9.7 Z M 190.6 9.5 C 187.7 9.5 186.1 11.1 186.1 13.8 L 186.1 14.7 L 195 14.7 L 195 13.8 C 195 11.1 193.5 9.5 190.6 9.5 Z M 75 1.2 C 76.2 1.2 76.6 1.6 76.6 2.8 L 76.6 3 C 76.6 4.3 76.2 4.7 75 4.7 L 74.8 4.7 C 73.6 4.7 73.3 4.3 73.3 3 L 73.3 2.8 C 73.3 1.6 73.6 1.2 74.8 1.2 L 75 1.2 Z" fill="#8f8f8f"/></g><g transform="translate(-86.5,256.875) scale(0.9)" fill-rule="nonzero"><path transform="translate(104.8,15.5) rotate(-360) translate(-104.8,-15.5)" stroke="#e9e9e9" d="M 16.8 10.4 L 25.7 1.4 C 27.7 -0.7 31.1 -0.7 33.1 1.4 C 34.1 2.4 34.6 3.7 34.6 5.1 L 34.6 26.7 C 34.6 29.6 32.3 32 29.4 32 C 28 32 26.7 31.4 25.7 30.4 L 16.8 21.4 L 7.9 30.4 C 6.9 31.4 5.6 32 4.2 32 C 1.3 32 -1 29.6 -1 26.7 L -1 5.1 C -1 3.7 -0.5 2.4 0.5 1.4 C 1.5 0.4 2.7 -0.1 4.1 -0.2 L 4.3 -0.2 L 4.3 -0.2 C 5.7 -0.1 6.9 0.4 7.9 1.4 L 16.8 10.4 Z M 106.8 6.5 L 106.8 0.8 C 106.8 -0.4 107.5 -1 108.6 -1 L 110 -1 C 111.1 -1 111.8 -0.3 111.8 0.8 L 111.8 22.4 C 111.8 23.9 111.3 24.6 109.8 25.2 C 108 25.9 105.9 26.3 103.6 26.3 C 98.4 26.3 95.6 23.6 95.6 18.6 L 95.6 13.8 C 95.6 8.8 98.3 6 103.3 6 C 104.3 6 105.5 6.1 106.8 6.5 Z M 149.5 13.8 L 149.5 13.7 C 149.5 11.5 148.8 10.7 146.6 10.7 C 145 10.7 144 11.2 143.3 12.3 C 143.1 12.7 143 12.8 142.8 12.9 C 142.3 13.3 141.8 13.3 141 13 L 140.1 12.6 C 139 12.1 138.6 11.1 139.1 10.1 C 140.5 7.4 143.1 6 146.7 6 C 151.9 6 154.4 8.8 154.4 13.8 L 154.4 22.5 C 154.4 24 154 24.8 152.6 25.3 C 151.2 26 149.2 26.3 146.6 26.3 C 143.7 26.3 141.6 25.8 140.4 24.8 C 139.1 23.7 138.5 22.1 138.5 20 C 138.5 15.5 140.9 13.7 146.8 13.7 C 147.7 13.7 148.6 13.7 149.5 13.8 Z M 162.8 6 C 166.6 6 169.3 7.4 170.5 10.2 C 171 11.2 170.7 12.2 169.6 12.7 L 168.5 13.2 C 167.5 13.6 166.9 13.4 166.2 12.4 L 166.2 12.3 C 165.6 11.2 164.8 10.7 162.9 10.7 C 160.9 10.7 160.1 11.2 160.1 12.1 C 160.1 13.2 160.7 13.5 163.7 13.8 C 166.1 14 167.8 14.5 169 15.3 C 170.4 16.2 171.1 17.8 171.1 19.9 C 171.1 23.9 168.1 26.3 163.2 26.3 C 159.1 26.3 156.3 24.7 155.2 21.6 C 154.7 20.5 155.1 19.5 156.2 19.2 L 157.4 18.7 C 158.3 18.4 159.2 18.8 159.7 19.8 C 160.1 21 161.2 21.6 163.1 21.6 C 165.4 21.6 166.2 21.1 166.2 20.1 C 166.2 19 165.7 18.7 162.8 18.4 C 160.9 18.2 160.1 18.1 158.8 17.6 C 158 17.3 157.4 16.9 156.9 16.5 C 155.9 15.6 155.2 14 155.2 12.2 C 155.2 8.3 158.1 6 162.8 6 Z M 187.1 18 L 187.1 18.7 C 187.1 20.7 188.2 21.7 190.5 21.7 C 192.3 21.7 193.5 21.1 194.2 19.8 C 194.9 18.8 195.8 18.6 196.8 19.2 L 197.6 19.7 C 198.7 20.2 199 21.3 198.3 22.3 C 196.9 25 194.2 26.3 190.4 26.3 C 185.2 26.3 182.2 23.3 182.2 18.3 L 182.2 14.2 C 182.2 9 185.3 6 190.6 6 C 195.8 6 199 9.1 199 13.9 L 199 15.9 C 199 17.2 198.1 18 196.7 18 L 187.1 18 Z M 177.9 6.5 L 181.1 6.5 C 182.3 6.5 182.9 7.2 182.9 8.3 L 182.9 9.5 C 182.9 10.6 182.3 11.3 181.1 11.3 L 177.9 11.3 L 177.9 18.1 C 177.9 19.6 178.1 20.5 178.4 20.9 C 178.8 21.2 179.7 21.4 181.1 21.4 C 182.3 21.4 182.9 22.1 182.9 23.2 L 182.9 24.5 C 182.9 25.6 182.3 26.2 181.1 26.3 C 178.2 26.3 176.1 25.8 174.9 24.5 C 173.6 23.3 173 21.2 173 18.2 L 173 11.3 L 171.2 11.3 C 170.1 11.3 169.5 10.6 169.5 9.5 L 169.5 8.3 C 169.5 7.1 170.1 6.5 171.2 6.5 L 173 6.5 L 173 4.3 C 173 3.1 173.6 2.5 174.7 2.5 L 176.1 2.5 C 177.2 2.5 177.9 3.1 177.9 4.3 L 177.9 6.5 Z M 61 11.2 C 61.1 11.9 61.2 12.6 61.2 13.5 L 61.2 24 C 61.2 25.1 60.6 25.8 59.5 25.8 L 58.1 25.8 C 56.9 25.8 56.3 25.2 56.3 24 L 56.3 13.6 C 56.3 11.6 55.5 10.7 53.6 10.7 C 52.7 10.7 51.9 10.9 51.1 11.1 L 51.1 24 C 51.1 25.2 50.5 25.8 49.3 25.8 L 48 25.8 C 46.8 25.8 46.2 25.1 46.2 24 L 46.2 10 C 46.2 8.5 46.7 7.8 48 7.2 C 49.8 6.4 51.8 6 54 6 C 55.7 6 57.1 6.4 58.3 7.1 C 60.3 6.4 62.1 6 64 6 C 68.6 6 71.1 8.6 71.1 13.5 L 71.1 24 C 71.1 25.1 70.5 25.8 69.4 25.8 L 68 25.8 C 66.8 25.8 66.2 25.2 66.2 24 L 66.2 13.6 C 66.2 11.6 65.5 10.7 63.6 10.7 C 62.8 10.7 61.9 10.9 61 11.2 Z M 83.7 11.2 L 83.7 24 C 83.7 25.2 83.1 25.8 81.9 25.8 L 80.5 25.8 C 79.4 25.8 78.8 25.1 78.8 24 L 78.8 10 C 78.8 8.5 79.2 7.8 80.6 7.2 C 82.5 6.4 84.7 6 87.2 6 C 92.2 6 94.9 8.7 94.9 13.6 L 94.9 24 C 94.9 25.2 94.2 25.8 93.1 25.8 L 91.7 25.8 C 90.6 25.8 89.9 25.2 89.9 24 L 89.9 13.7 C 89.9 11.6 89 10.7 86.9 10.7 C 85.7 10.7 84.7 10.9 83.7 11.2 Z M 75.6 6.5 C 76.8 6.5 77.4 7.1 77.4 8.3 L 77.4 24 C 77.4 25.2 76.8 25.8 75.6 25.8 L 74.2 25.8 C 73.1 25.8 72.4 25.2 72.4 24 L 72.4 8.3 C 72.4 7.1 73.1 6.5 74.2 6.5 L 75.6 6.5 Z M 127.9 11.2 C 128 11.9 128.1 12.6 128.1 13.5 L 128.1 24 C 128.1 25.1 127.5 25.8 126.4 25.8 L 125 25.8 C 123.8 25.8 123.2 25.2 123.2 24 L 123.2 13.6 C 123.2 11.6 122.4 10.7 120.5 10.7 C 119.6 10.7 118.8 10.9 118 11.1 L 118 24 C 118 25.2 117.4 25.8 116.2 25.8 L 114.8 25.8 C 113.7 25.8 113.1 25.1 113.1 24 L 113.1 10 C 113.1 8.5 113.6 7.8 114.9 7.2 C 116.7 6.4 118.7 6 120.9 6 C 122.6 6 124 6.4 125.2 7.1 C 127.2 6.4 129 6 130.9 6 C 135.5 6 138 8.6 138 13.5 L 138 24 C 138 25.1 137.4 25.8 136.3 25.8 L 134.9 25.8 C 133.7 25.8 133.1 25.2 133.1 24 L 133.1 13.6 C 133.1 11.6 132.4 10.7 130.5 10.7 C 129.7 10.7 128.8 10.9 127.9 11.2 Z M 204.5 11.2 L 204.5 24 C 204.5 25.2 203.8 25.8 202.7 25.8 L 201.3 25.8 C 200.2 25.8 199.5 25.1 199.5 24 L 199.5 9.9 C 199.5 8.4 200 7.7 201.4 7.1 C 203.2 6.4 205.3 6 207.8 6 L 208.8 6 C 210 6 210.6 6.7 210.6 7.8 L 210.6 8.9 C 210.6 10.1 210 10.7 208.8 10.7 L 207.7 10.7 C 206.6 10.7 205.5 10.9 204.5 11.2 Z M 27 11 L 26.6 11.4 L 22.2 15.9 L 27 20.8 L 27 11 Z M 6.6 11 L 6.6 20.8 L 11.4 15.9 L 6.6 11 Z M 149.5 21.5 L 149.5 18.3 C 148.1 18.2 147.1 18.1 146.4 18.1 C 144 18.1 143.4 18.6 143.4 20 C 143.4 21.4 144 21.8 146.4 21.8 C 147.8 21.8 148.9 21.7 149.5 21.5 Z M 107.1 21.1 C 107.1 21.1 107.1 21.1 107.1 21.1 C 107.1 21.1 107.1 21.1 107.1 21.1 Z M 106.8 21.1 L 106.8 11.2 C 105.7 10.9 104.7 10.7 103.8 10.7 C 101.5 10.7 100.6 11.7 100.6 13.9 L 100.6 18.5 C 100.6 20.6 101.6 21.5 103.9 21.5 C 105 21.5 106 21.4 106.8 21.1 Z M 187.1 13.7 L 194 13.7 C 194 11.6 192.9 10.5 190.6 10.5 C 188.2 10.5 187.1 11.6 187.1 13.7 Z M 75 0.2 C 76.8 0.2 77.6 1 77.6 2.8 L 77.6 3 C 77.6 4.8 76.8 5.7 75 5.7 L 74.8 5.7 C 73.1 5.7 72.3 4.8 72.3 3 L 72.3 2.8 C 72.3 1 73.1 0.2 74.8 0.2 L 75 0.2 Z" fill="#b8b8b8" stroke-width="2"/><path transform="translate(104.8,15.5) rotate(-360) translate(-104.8,-15.5)" d="M 4.3 0.8 C 5.3 0.8 6.4 1.3 7.2 2.1 L 7.2 2.1 L 16.8 11.9 L 16.8 11.9 L 26.4 2.1 C 28.1 0.4 30.7 0.4 32.4 2.1 C 33.2 2.9 33.6 4 33.6 5.1 L 33.6 26.7 C 33.6 29.1 31.7 31 29.4 31 C 28.3 31 27.2 30.5 26.4 29.7 L 16.8 19.9 L 7.2 29.7 C 6.4 30.5 5.3 31 4.2 31 C 1.9 31 0 29.1 0 26.7 L 0 5.1 C 0 4 0.4 2.9 1.2 2.1 C 2 1.3 3.1 0.8 4.1 0.8 Z M 110 0 C 110.6 0 110.8 0.2 110.8 0.8 L 110.8 22.4 C 110.8 23.5 110.5 23.8 109.5 24.3 C 107.7 25 105.8 25.3 103.6 25.3 C 99 25.3 96.6 23 96.6 18.6 L 96.6 13.8 C 96.6 9.4 98.9 7 103.3 7 C 104.5 7 106 7.2 107.8 7.7 L 107.8 0.8 C 107.8 0.2 108.1 0 108.6 0 L 110 0 Z M 146.7 7 C 151.6 7 153.4 9.6 153.4 13.8 L 153.4 22.5 C 153.4 23.7 153.2 24 152.2 24.4 C 150.9 25 149.1 25.3 146.6 25.3 C 143.9 25.3 142 24.9 141 24 C 140 23.1 139.5 21.8 139.5 20 C 139.5 16.1 141.5 14.7 146.8 14.7 C 147.9 14.7 149.2 14.8 150.5 14.9 L 150.5 13.7 C 150.5 11.1 149.5 9.7 146.6 9.7 C 144.7 9.7 143.4 10.4 142.5 11.7 C 142.1 12.3 142.1 12.4 141.5 12.1 L 140.4 11.7 C 139.9 11.4 139.8 11.1 140 10.5 C 141.2 8.2 143.4 7 146.7 7 Z M 162.8 7 C 166.3 7 168.6 8.2 169.6 10.6 C 169.9 11.2 169.8 11.6 169.2 11.8 L 168.1 12.3 C 167.5 12.5 167.4 12.4 167.1 11.9 C 166.4 10.5 165.2 9.7 162.9 9.7 C 160.4 9.7 159.1 10.5 159.1 12.1 C 159.1 14.1 160.4 14.5 163.6 14.8 C 165.7 15 167.4 15.4 168.5 16.1 C 169.5 16.8 170.1 18.1 170.1 19.9 C 170.1 23.2 167.7 25.3 163.2 25.3 C 159.5 25.3 157.1 23.9 156.1 21.2 C 155.8 20.6 156 20.3 156.6 20.1 L 157.7 19.7 C 158.2 19.5 158.5 19.7 158.7 20.2 C 159.3 21.8 160.8 22.6 163.1 22.6 C 165.8 22.6 167.2 21.8 167.2 20.1 C 167.2 18.2 166 17.7 162.9 17.4 C 161.3 17.3 160.5 17.1 159.1 16.6 C 158.5 16.4 158 16.1 157.6 15.8 C 156.9 15.1 156.2 13.8 156.2 12.2 C 156.2 9 158.5 7 162.8 7 Z M 190.6 7 C 195.4 7 198 9.8 198 13.9 L 198 15.9 C 198 16.6 197.6 17 196.7 17 L 186.1 17 L 186.1 18.7 C 186.1 21.2 187.6 22.7 190.5 22.7 C 192.6 22.7 194.1 21.9 195 20.4 C 195.4 19.8 195.7 19.7 196.3 20.1 L 197.2 20.5 C 197.7 20.8 197.8 21.3 197.5 21.8 C 196.2 24.2 193.8 25.3 190.4 25.3 C 185.6 25.3 183.2 22.6 183.2 18.3 L 183.2 14.2 C 183.2 9.6 185.8 7 190.6 7 Z M 176.1 3.5 C 176.6 3.5 176.9 3.7 176.9 4.3 L 176.9 7.5 L 181.1 7.5 C 181.7 7.5 181.9 7.7 181.9 8.3 L 181.9 9.5 C 181.9 10 181.7 10.3 181.1 10.3 L 176.9 10.3 L 176.9 18.1 C 176.9 19.9 177.2 21 177.7 21.6 C 178.3 22.1 179.4 22.4 181.1 22.4 C 181.7 22.4 181.9 22.6 181.9 23.2 L 181.9 24.5 C 181.9 25 181.7 25.2 181.1 25.3 C 178.4 25.3 176.6 24.9 175.6 23.8 C 174.5 22.8 174 20.9 174 18.2 L 174 10.3 L 171.2 10.3 C 170.7 10.3 170.5 10 170.5 9.5 L 170.5 8.3 C 170.5 7.7 170.7 7.5 171.2 7.5 L 174 7.5 L 174 4.3 C 174 3.7 174.2 3.5 174.7 3.5 L 176.1 3.5 Z M 64 7 C 68.1 7 70.1 9.2 70.1 13.5 L 70.1 24 C 70.1 24.6 69.9 24.8 69.4 24.8 L 68 24.8 C 67.4 24.8 67.2 24.6 67.2 24 L 67.2 13.6 C 67.2 11 66 9.7 63.6 9.7 C 62.4 9.7 61.1 10 59.7 10.7 C 60 11.4 60.2 12.3 60.2 13.5 L 60.2 24 C 60.2 24.6 60 24.8 59.5 24.8 L 58.1 24.8 C 57.5 24.8 57.3 24.6 57.3 24 L 57.3 13.6 C 57.3 11 56.1 9.7 53.6 9.7 C 52.5 9.7 51.5 9.9 50.5 10.3 C 50.2 10.5 50.1 10.7 50.1 11 L 50.1 24 C 50.1 24.6 49.9 24.8 49.3 24.8 L 48 24.8 C 47.4 24.8 47.2 24.6 47.2 24 L 47.2 10 C 47.2 8.9 47.4 8.5 48.4 8.1 C 50.1 7.4 51.9 7 54 7 C 55.8 7 57.1 7.4 58.1 8.3 C 60.2 7.4 62.1 7 64 7 Z M 87.2 7 C 91.7 7 93.9 9.2 93.9 13.6 L 93.9 24 C 93.9 24.6 93.7 24.8 93.1 24.8 L 91.7 24.8 C 91.2 24.8 90.9 24.6 90.9 24 L 90.9 13.7 C 90.9 11.1 89.6 9.7 86.9 9.7 C 85.5 9.7 84.3 9.9 83.1 10.4 C 82.8 10.5 82.7 10.7 82.7 11 L 82.7 24 C 82.7 24.6 82.5 24.8 81.9 24.8 L 80.5 24.8 C 80 24.8 79.8 24.6 79.8 24 L 79.8 10 C 79.8 8.9 80 8.6 81 8.1 C 82.8 7.4 84.9 7 87.2 7 Z M 75.6 7.5 C 76.2 7.5 76.4 7.7 76.4 8.3 L 76.4 24 C 76.4 24.6 76.2 24.8 75.6 24.8 L 74.2 24.8 C 73.6 24.8 73.4 24.6 73.4 24 L 73.4 8.3 C 73.4 7.7 73.6 7.5 74.2 7.5 L 75.6 7.5 Z M 130.9 7 C 135 7 137 9.2 137 13.5 L 137 24 C 137 24.6 136.8 24.8 136.3 24.8 L 134.9 24.8 C 134.3 24.8 134.1 24.6 134.1 24 L 134.1 13.6 C 134.1 11 132.9 9.7 130.5 9.7 C 129.3 9.7 128 10 126.6 10.7 C 126.9 11.4 127.1 12.3 127.1 13.5 L 127.1 24 C 127.1 24.6 126.9 24.8 126.4 24.8 L 125 24.8 C 124.4 24.8 124.2 24.6 124.2 24 L 124.2 13.6 C 124.2 11 123 9.7 120.5 9.7 C 119.4 9.7 118.4 9.9 117.4 10.3 C 117.1 10.5 117 10.7 117 11 L 117 24 C 117 24.6 116.8 24.8 116.2 24.8 L 114.8 24.8 C 114.3 24.8 114.1 24.6 114.1 24 L 114.1 10 C 114.1 8.9 114.3 8.5 115.3 8.1 C 117 7.4 118.8 7 120.9 7 C 122.7 7 124 7.4 125 8.3 C 127.1 7.4 129 7 130.9 7 Z M 208.8 7 C 209.4 7 209.6 7.2 209.6 7.8 L 209.6 8.9 C 209.6 9.5 209.4 9.7 208.8 9.7 L 207.7 9.7 C 206.4 9.7 205.1 9.9 203.9 10.3 C 203.6 10.4 203.5 10.7 203.5 11 L 203.5 24 C 203.5 24.6 203.3 24.8 202.7 24.8 L 201.3 24.8 C 200.7 24.8 200.5 24.6 200.5 24 L 200.5 9.9 C 200.5 8.8 200.8 8.5 201.8 8 C 203.4 7.4 205.4 7 207.8 7 L 208.8 7 Z M 28 8.5 L 25.9 10.7 L 20.8 15.9 L 27.6 22.9 L 28 23.3 L 28 8.5 Z M 5.6 8.5 L 5.6 23.3 L 12.8 15.9 L 12.8 15.9 L 5.6 8.5 Z M 146.4 17.1 C 143.4 17.1 142.4 18 142.4 20 C 142.4 21.9 143.3 22.8 146.4 22.8 C 148 22.8 149.2 22.6 150 22.4 C 150.3 22.2 150.5 22 150.5 21.6 L 150.5 17.4 C 148.7 17.3 147.4 17.1 146.4 17.1 Z M 103.8 9.7 C 101 9.7 99.6 11.2 99.6 13.9 L 99.6 18.5 C 99.6 21.2 101 22.5 103.9 22.5 C 105.2 22.5 106.4 22.4 107.4 22 C 107.7 21.9 107.8 21.7 107.8 21.4 L 107.8 10.5 C 106.3 10 104.9 9.7 103.8 9.7 Z M 190.6 9.5 C 187.7 9.5 186.1 11.1 186.1 13.8 L 186.1 14.7 L 195 14.7 L 195 13.8 C 195 11.1 193.5 9.5 190.6 9.5 Z M 75 1.2 C 76.2 1.2 76.6 1.6 76.6 2.8 L 76.6 3 C 76.6 4.3 76.2 4.7 75 4.7 L 74.8 4.7 C 73.6 4.7 73.3 4.3 73.3 3 L 73.3 2.8 C 73.3 1.6 73.6 1.2 74.8 1.2 L 75 1.2 Z" fill="#8f8f8f"/></g><g transform="translate(263.5,256.875) scale(0.9)" fill-rule="nonzero"><path transform="translate(104.8,15.5) rotate(-360) translate(-104.8,-15.5)" stroke="#e9e9e9" d="M 16.8 10.4 L 25.7 1.4 C 27.7 -0.7 31.1 -0.7 33.1 1.4 C 34.1 2.4 34.6 3.7 34.6 5.1 L 34.6 26.7 C 34.6 29.6 32.3 32 29.4 32 C 28 32 26.7 31.4 25.7 30.4 L 16.8 21.4 L 7.9 30.4 C 6.9 31.4 5.6 32 4.2 32 C 1.3 32 -1 29.6 -1 26.7 L -1 5.1 C -1 3.7 -0.5 2.4 0.5 1.4 C 1.5 0.4 2.7 -0.1 4.1 -0.2 L 4.3 -0.2 L 4.3 -0.2 C 5.7 -0.1 6.9 0.4 7.9 1.4 L 16.8 10.4 Z M 106.8 6.5 L 106.8 0.8 C 106.8 -0.4 107.5 -1 108.6 -1 L 110 -1 C 111.1 -1 111.8 -0.3 111.8 0.8 L 111.8 22.4 C 111.8 23.9 111.3 24.6 109.8 25.2 C 108 25.9 105.9 26.3 103.6 26.3 C 98.4 26.3 95.6 23.6 95.6 18.6 L 95.6 13.8 C 95.6 8.8 98.3 6 103.3 6 C 104.3 6 105.5 6.1 106.8 6.5 Z M 149.5 13.8 L 149.5 13.7 C 149.5 11.5 148.8 10.7 146.6 10.7 C 145 10.7 144 11.2 143.3 12.3 C 143.1 12.7 143 12.8 142.8 12.9 C 142.3 13.3 141.8 13.3 141 13 L 140.1 12.6 C 139 12.1 138.6 11.1 139.1 10.1 C 140.5 7.4 143.1 6 146.7 6 C 151.9 6 154.4 8.8 154.4 13.8 L 154.4 22.5 C 154.4 24 154 24.8 152.6 25.3 C 151.2 26 149.2 26.3 146.6 26.3 C 143.7 26.3 141.6 25.8 140.4 24.8 C 139.1 23.7 138.5 22.1 138.5 20 C 138.5 15.5 140.9 13.7 146.8 13.7 C 147.7 13.7 148.6 13.7 149.5 13.8 Z M 162.8 6 C 166.6 6 169.3 7.4 170.5 10.2 C 171 11.2 170.7 12.2 169.6 12.7 L 168.5 13.2 C 167.5 13.6 166.9 13.4 166.2 12.4 L 166.2 12.3 C 165.6 11.2 164.8 10.7 162.9 10.7 C 160.9 10.7 160.1 11.2 160.1 12.1 C 160.1 13.2 160.7 13.5 163.7 13.8 C 166.1 14 167.8 14.5 169 15.3 C 170.4 16.2 171.1 17.8 171.1 19.9 C 171.1 23.9 168.1 26.3 163.2 26.3 C 159.1 26.3 156.3 24.7 155.2 21.6 C 154.7 20.5 155.1 19.5 156.2 19.2 L 157.4 18.7 C 158.3 18.4 159.2 18.8 159.7 19.8 C 160.1 21 161.2 21.6 163.1 21.6 C 165.4 21.6 166.2 21.1 166.2 20.1 C 166.2 19 165.7 18.7 162.8 18.4 C 160.9 18.2 160.1 18.1 158.8 17.6 C 158 17.3 157.4 16.9 156.9 16.5 C 155.9 15.6 155.2 14 155.2 12.2 C 155.2 8.3 158.1 6 162.8 6 Z M 187.1 18 L 187.1 18.7 C 187.1 20.7 188.2 21.7 190.5 21.7 C 192.3 21.7 193.5 21.1 194.2 19.8 C 194.9 18.8 195.8 18.6 196.8 19.2 L 197.6 19.7 C 198.7 20.2 199 21.3 198.3 22.3 C 196.9 25 194.2 26.3 190.4 26.3 C 185.2 26.3 182.2 23.3 182.2 18.3 L 182.2 14.2 C 182.2 9 185.3 6 190.6 6 C 195.8 6 199 9.1 199 13.9 L 199 15.9 C 199 17.2 198.1 18 196.7 18 L 187.1 18 Z M 177.9 6.5 L 181.1 6.5 C 182.3 6.5 182.9 7.2 182.9 8.3 L 182.9 9.5 C 182.9 10.6 182.3 11.3 181.1 11.3 L 177.9 11.3 L 177.9 18.1 C 177.9 19.6 178.1 20.5 178.4 20.9 C 178.8 21.2 179.7 21.4 181.1 21.4 C 182.3 21.4 182.9 22.1 182.9 23.2 L 182.9 24.5 C 182.9 25.6 182.3 26.2 181.1 26.3 C 178.2 26.3 176.1 25.8 174.9 24.5 C 173.6 23.3 173 21.2 173 18.2 L 173 11.3 L 171.2 11.3 C 170.1 11.3 169.5 10.6 169.5 9.5 L 169.5 8.3 C 169.5 7.1 170.1 6.5 171.2 6.5 L 173 6.5 L 173 4.3 C 173 3.1 173.6 2.5 174.7 2.5 L 176.1 2.5 C 177.2 2.5 177.9 3.1 177.9 4.3 L 177.9 6.5 Z M 61 11.2 C 61.1 11.9 61.2 12.6 61.2 13.5 L 61.2 24 C 61.2 25.1 60.6 25.8 59.5 25.8 L 58.1 25.8 C 56.9 25.8 56.3 25.2 56.3 24 L 56.3 13.6 C 56.3 11.6 55.5 10.7 53.6 10.7 C 52.7 10.7 51.9 10.9 51.1 11.1 L 51.1 24 C 51.1 25.2 50.5 25.8 49.3 25.8 L 48 25.8 C 46.8 25.8 46.2 25.1 46.2 24 L 46.2 10 C 46.2 8.5 46.7 7.8 48 7.2 C 49.8 6.4 51.8 6 54 6 C 55.7 6 57.1 6.4 58.3 7.1 C 60.3 6.4 62.1 6 64 6 C 68.6 6 71.1 8.6 71.1 13.5 L 71.1 24 C 71.1 25.1 70.5 25.8 69.4 25.8 L 68 25.8 C 66.8 25.8 66.2 25.2 66.2 24 L 66.2 13.6 C 66.2 11.6 65.5 10.7 63.6 10.7 C 62.8 10.7 61.9 10.9 61 11.2 Z M 83.7 11.2 L 83.7 24 C 83.7 25.2 83.1 25.8 81.9 25.8 L 80.5 25.8 C 79.4 25.8 78.8 25.1 78.8 24 L 78.8 10 C 78.8 8.5 79.2 7.8 80.6 7.2 C 82.5 6.4 84.7 6 87.2 6 C 92.2 6 94.9 8.7 94.9 13.6 L 94.9 24 C 94.9 25.2 94.2 25.8 93.1 25.8 L 91.7 25.8 C 90.6 25.8 89.9 25.2 89.9 24 L 89.9 13.7 C 89.9 11.6 89 10.7 86.9 10.7 C 85.7 10.7 84.7 10.9 83.7 11.2 Z M 75.6 6.5 C 76.8 6.5 77.4 7.1 77.4 8.3 L 77.4 24 C 77.4 25.2 76.8 25.8 75.6 25.8 L 74.2 25.8 C 73.1 25.8 72.4 25.2 72.4 24 L 72.4 8.3 C 72.4 7.1 73.1 6.5 74.2 6.5 L 75.6 6.5 Z M 127.9 11.2 C 128 11.9 128.1 12.6 128.1 13.5 L 128.1 24 C 128.1 25.1 127.5 25.8 126.4 25.8 L 125 25.8 C 123.8 25.8 123.2 25.2 123.2 24 L 123.2 13.6 C 123.2 11.6 122.4 10.7 120.5 10.7 C 119.6 10.7 118.8 10.9 118 11.1 L 118 24 C 118 25.2 117.4 25.8 116.2 25.8 L 114.8 25.8 C 113.7 25.8 113.1 25.1 113.1 24 L 113.1 10 C 113.1 8.5 113.6 7.8 114.9 7.2 C 116.7 6.4 118.7 6 120.9 6 C 122.6 6 124 6.4 125.2 7.1 C 127.2 6.4 129 6 130.9 6 C 135.5 6 138 8.6 138 13.5 L 138 24 C 138 25.1 137.4 25.8 136.3 25.8 L 134.9 25.8 C 133.7 25.8 133.1 25.2 133.1 24 L 133.1 13.6 C 133.1 11.6 132.4 10.7 130.5 10.7 C 129.7 10.7 128.8 10.9 127.9 11.2 Z M 204.5 11.2 L 204.5 24 C 204.5 25.2 203.8 25.8 202.7 25.8 L 201.3 25.8 C 200.2 25.8 199.5 25.1 199.5 24 L 199.5 9.9 C 199.5 8.4 200 7.7 201.4 7.1 C 203.2 6.4 205.3 6 207.8 6 L 208.8 6 C 210 6 210.6 6.7 210.6 7.8 L 210.6 8.9 C 210.6 10.1 210 10.7 208.8 10.7 L 207.7 10.7 C 206.6 10.7 205.5 10.9 204.5 11.2 Z M 27 11 L 26.6 11.4 L 22.2 15.9 L 27 20.8 L 27 11 Z M 6.6 11 L 6.6 20.8 L 11.4 15.9 L 6.6 11 Z M 149.5 21.5 L 149.5 18.3 C 148.1 18.2 147.1 18.1 146.4 18.1 C 144 18.1 143.4 18.6 143.4 20 C 143.4 21.4 144 21.8 146.4 21.8 C 147.8 21.8 148.9 21.7 149.5 21.5 Z M 107.1 21.1 C 107.1 21.1 107.1 21.1 107.1 21.1 C 107.1 21.1 107.1 21.1 107.1 21.1 Z M 106.8 21.1 L 106.8 11.2 C 105.7 10.9 104.7 10.7 103.8 10.7 C 101.5 10.7 100.6 11.7 100.6 13.9 L 100.6 18.5 C 100.6 20.6 101.6 21.5 103.9 21.5 C 105 21.5 106 21.4 106.8 21.1 Z M 187.1 13.7 L 194 13.7 C 194 11.6 192.9 10.5 190.6 10.5 C 188.2 10.5 187.1 11.6 187.1 13.7 Z M 75 0.2 C 76.8 0.2 77.6 1 77.6 2.8 L 77.6 3 C 77.6 4.8 76.8 5.7 75 5.7 L 74.8 5.7 C 73.1 5.7 72.3 4.8 72.3 3 L 72.3 2.8 C 72.3 1 73.1 0.2 74.8 0.2 L 75 0.2 Z" fill="#b8b8b8" stroke-width="2"/><path transform="translate(104.8,15.5) rotate(-360) translate(-104.8,-15.5)" d="M 4.3 0.8 C 5.3 0.8 6.4 1.3 7.2 2.1 L 7.2 2.1 L 16.8 11.9 L 16.8 11.9 L 26.4 2.1 C 28.1 0.4 30.7 0.4 32.4 2.1 C 33.2 2.9 33.6 4 33.6 5.1 L 33.6 26.7 C 33.6 29.1 31.7 31 29.4 31 C 28.3 31 27.2 30.5 26.4 29.7 L 16.8 19.9 L 7.2 29.7 C 6.4 30.5 5.3 31 4.2 31 C 1.9 31 0 29.1 0 26.7 L 0 5.1 C 0 4 0.4 2.9 1.2 2.1 C 2 1.3 3.1 0.8 4.1 0.8 Z M 110 0 C 110.6 0 110.8 0.2 110.8 0.8 L 110.8 22.4 C 110.8 23.5 110.5 23.8 109.5 24.3 C 107.7 25 105.8 25.3 103.6 25.3 C 99 25.3 96.6 23 96.6 18.6 L 96.6 13.8 C 96.6 9.4 98.9 7 103.3 7 C 104.5 7 106 7.2 107.8 7.7 L 107.8 0.8 C 107.8 0.2 108.1 0 108.6 0 L 110 0 Z M 146.7 7 C 151.6 7 153.4 9.6 153.4 13.8 L 153.4 22.5 C 153.4 23.7 153.2 24 152.2 24.4 C 150.9 25 149.1 25.3 146.6 25.3 C 143.9 25.3 142 24.9 141 24 C 140 23.1 139.5 21.8 139.5 20 C 139.5 16.1 141.5 14.7 146.8 14.7 C 147.9 14.7 149.2 14.8 150.5 14.9 L 150.5 13.7 C 150.5 11.1 149.5 9.7 146.6 9.7 C 144.7 9.7 143.4 10.4 142.5 11.7 C 142.1 12.3 142.1 12.4 141.5 12.1 L 140.4 11.7 C 139.9 11.4 139.8 11.1 140 10.5 C 141.2 8.2 143.4 7 146.7 7 Z M 162.8 7 C 166.3 7 168.6 8.2 169.6 10.6 C 169.9 11.2 169.8 11.6 169.2 11.8 L 168.1 12.3 C 167.5 12.5 167.4 12.4 167.1 11.9 C 166.4 10.5 165.2 9.7 162.9 9.7 C 160.4 9.7 159.1 10.5 159.1 12.1 C 159.1 14.1 160.4 14.5 163.6 14.8 C 165.7 15 167.4 15.4 168.5 16.1 C 169.5 16.8 170.1 18.1 170.1 19.9 C 170.1 23.2 167.7 25.3 163.2 25.3 C 159.5 25.3 157.1 23.9 156.1 21.2 C 155.8 20.6 156 20.3 156.6 20.1 L 157.7 19.7 C 158.2 19.5 158.5 19.7 158.7 20.2 C 159.3 21.8 160.8 22.6 163.1 22.6 C 165.8 22.6 167.2 21.8 167.2 20.1 C 167.2 18.2 166 17.7 162.9 17.4 C 161.3 17.3 160.5 17.1 159.1 16.6 C 158.5 16.4 158 16.1 157.6 15.8 C 156.9 15.1 156.2 13.8 156.2 12.2 C 156.2 9 158.5 7 162.8 7 Z M 190.6 7 C 195.4 7 198 9.8 198 13.9 L 198 15.9 C 198 16.6 197.6 17 196.7 17 L 186.1 17 L 186.1 18.7 C 186.1 21.2 187.6 22.7 190.5 22.7 C 192.6 22.7 194.1 21.9 195 20.4 C 195.4 19.8 195.7 19.7 196.3 20.1 L 197.2 20.5 C 197.7 20.8 197.8 21.3 197.5 21.8 C 196.2 24.2 193.8 25.3 190.4 25.3 C 185.6 25.3 183.2 22.6 183.2 18.3 L 183.2 14.2 C 183.2 9.6 185.8 7 190.6 7 Z M 176.1 3.5 C 176.6 3.5 176.9 3.7 176.9 4.3 L 176.9 7.5 L 181.1 7.5 C 181.7 7.5 181.9 7.7 181.9 8.3 L 181.9 9.5 C 181.9 10 181.7 10.3 181.1 10.3 L 176.9 10.3 L 176.9 18.1 C 176.9 19.9 177.2 21 177.7 21.6 C 178.3 22.1 179.4 22.4 181.1 22.4 C 181.7 22.4 181.9 22.6 181.9 23.2 L 181.9 24.5 C 181.9 25 181.7 25.2 181.1 25.3 C 178.4 25.3 176.6 24.9 175.6 23.8 C 174.5 22.8 174 20.9 174 18.2 L 174 10.3 L 171.2 10.3 C 170.7 10.3 170.5 10 170.5 9.5 L 170.5 8.3 C 170.5 7.7 170.7 7.5 171.2 7.5 L 174 7.5 L 174 4.3 C 174 3.7 174.2 3.5 174.7 3.5 L 176.1 3.5 Z M 64 7 C 68.1 7 70.1 9.2 70.1 13.5 L 70.1 24 C 70.1 24.6 69.9 24.8 69.4 24.8 L 68 24.8 C 67.4 24.8 67.2 24.6 67.2 24 L 67.2 13.6 C 67.2 11 66 9.7 63.6 9.7 C 62.4 9.7 61.1 10 59.7 10.7 C 60 11.4 60.2 12.3 60.2 13.5 L 60.2 24 C 60.2 24.6 60 24.8 59.5 24.8 L 58.1 24.8 C 57.5 24.8 57.3 24.6 57.3 24 L 57.3 13.6 C 57.3 11 56.1 9.7 53.6 9.7 C 52.5 9.7 51.5 9.9 50.5 10.3 C 50.2 10.5 50.1 10.7 50.1 11 L 50.1 24 C 50.1 24.6 49.9 24.8 49.3 24.8 L 48 24.8 C 47.4 24.8 47.2 24.6 47.2 24 L 47.2 10 C 47.2 8.9 47.4 8.5 48.4 8.1 C 50.1 7.4 51.9 7 54 7 C 55.8 7 57.1 7.4 58.1 8.3 C 60.2 7.4 62.1 7 64 7 Z M 87.2 7 C 91.7 7 93.9 9.2 93.9 13.6 L 93.9 24 C 93.9 24.6 93.7 24.8 93.1 24.8 L 91.7 24.8 C 91.2 24.8 90.9 24.6 90.9 24 L 90.9 13.7 C 90.9 11.1 89.6 9.7 86.9 9.7 C 85.5 9.7 84.3 9.9 83.1 10.4 C 82.8 10.5 82.7 10.7 82.7 11 L 82.7 24 C 82.7 24.6 82.5 24.8 81.9 24.8 L 80.5 24.8 C 80 24.8 79.8 24.6 79.8 24 L 79.8 10 C 79.8 8.9 80 8.6 81 8.1 C 82.8 7.4 84.9 7 87.2 7 Z M 75.6 7.5 C 76.2 7.5 76.4 7.7 76.4 8.3 L 76.4 24 C 76.4 24.6 76.2 24.8 75.6 24.8 L 74.2 24.8 C 73.6 24.8 73.4 24.6 73.4 24 L 73.4 8.3 C 73.4 7.7 73.6 7.5 74.2 7.5 L 75.6 7.5 Z M 130.9 7 C 135 7 137 9.2 137 13.5 L 137 24 C 137 24.6 136.8 24.8 136.3 24.8 L 134.9 24.8 C 134.3 24.8 134.1 24.6 134.1 24 L 134.1 13.6 C 134.1 11 132.9 9.7 130.5 9.7 C 129.3 9.7 128 10 126.6 10.7 C 126.9 11.4 127.1 12.3 127.1 13.5 L 127.1 24 C 127.1 24.6 126.9 24.8 126.4 24.8 L 125 24.8 C 124.4 24.8 124.2 24.6 124.2 24 L 124.2 13.6 C 124.2 11 123 9.7 120.5 9.7 C 119.4 9.7 118.4 9.9 117.4 10.3 C 117.1 10.5 117 10.7 117 11 L 117 24 C 117 24.6 116.8 24.8 116.2 24.8 L 114.8 24.8 C 114.3 24.8 114.1 24.6 114.1 24 L 114.1 10 C 114.1 8.9 114.3 8.5 115.3 8.1 C 117 7.4 118.8 7 120.9 7 C 122.7 7 124 7.4 125 8.3 C 127.1 7.4 129 7 130.9 7 Z M 208.8 7 C 209.4 7 209.6 7.2 209.6 7.8 L 209.6 8.9 C 209.6 9.5 209.4 9.7 208.8 9.7 L 207.7 9.7 C 206.4 9.7 205.1 9.9 203.9 10.3 C 203.6 10.4 203.5 10.7 203.5 11 L 203.5 24 C 203.5 24.6 203.3 24.8 202.7 24.8 L 201.3 24.8 C 200.7 24.8 200.5 24.6 200.5 24 L 200.5 9.9 C 200.5 8.8 200.8 8.5 201.8 8 C 203.4 7.4 205.4 7 207.8 7 L 208.8 7 Z M 28 8.5 L 25.9 10.7 L 20.8 15.9 L 27.6 22.9 L 28 23.3 L 28 8.5 Z M 5.6 8.5 L 5.6 23.3 L 12.8 15.9 L 12.8 15.9 L 5.6 8.5 Z M 146.4 17.1 C 143.4 17.1 142.4 18 142.4 20 C 142.4 21.9 143.3 22.8 146.4 22.8 C 148 22.8 149.2 22.6 150 22.4 C 150.3 22.2 150.5 22 150.5 21.6 L 150.5 17.4 C 148.7 17.3 147.4 17.1 146.4 17.1 Z M 103.8 9.7 C 101 9.7 99.6 11.2 99.6 13.9 L 99.6 18.5 C 99.6 21.2 101 22.5 103.9 22.5 C 105.2 22.5 106.4 22.4 107.4 22 C 107.7 21.9 107.8 21.7 107.8 21.4 L 107.8 10.5 C 106.3 10 104.9 9.7 103.8 9.7 Z M 190.6 9.5 C 187.7 9.5 186.1 11.1 186.1 13.8 L 186.1 14.7 L 195 14.7 L 195 13.8 C 195 11.1 193.5 9.5 190.6 9.5 Z M 75 1.2 C 76.2 1.2 76.6 1.6 76.6 2.8 L 76.6 3 C 76.6 4.3 76.2 4.7 75 4.7 L 74.8 4.7 C 73.6 4.7 73.3 4.3 73.3 3 L 73.3 2.8 C 73.3 1.6 73.6 1.2 74.8 1.2 L 75 1.2 Z" fill="#8f8f8f"/></g><g transform="translate(613.5,256.875) scale(0.9)" fill-rule="nonzero"><path transform="translate(104.8,15.5) rotate(-360) translate(-104.8,-15.5)" stroke="#e9e9e9" d="M 16.8 10.4 L 25.7 1.4 C 27.7 -0.7 31.1 -0.7 33.1 1.4 C 34.1 2.4 34.6 3.7 34.6 5.1 L 34.6 26.7 C 34.6 29.6 32.3 32 29.4 32 C 28 32 26.7 31.4 25.7 30.4 L 16.8 21.4 L 7.9 30.4 C 6.9 31.4 5.6 32 4.2 32 C 1.3 32 -1 29.6 -1 26.7 L -1 5.1 C -1 3.7 -0.5 2.4 0.5 1.4 C 1.5 0.4 2.7 -0.1 4.1 -0.2 L 4.3 -0.2 L 4.3 -0.2 C 5.7 -0.1 6.9 0.4 7.9 1.4 L 16.8 10.4 Z M 106.8 6.5 L 106.8 0.8 C 106.8 -0.4 107.5 -1 108.6 -1 L 110 -1 C 111.1 -1 111.8 -0.3 111.8 0.8 L 111.8 22.4 C 111.8 23.9 111.3 24.6 109.8 25.2 C 108 25.9 105.9 26.3 103.6 26.3 C 98.4 26.3 95.6 23.6 95.6 18.6 L 95.6 13.8 C 95.6 8.8 98.3 6 103.3 6 C 104.3 6 105.5 6.1 106.8 6.5 Z M 149.5 13.8 L 149.5 13.7 C 149.5 11.5 148.8 10.7 146.6 10.7 C 145 10.7 144 11.2 143.3 12.3 C 143.1 12.7 143 12.8 142.8 12.9 C 142.3 13.3 141.8 13.3 141 13 L 140.1 12.6 C 139 12.1 138.6 11.1 139.1 10.1 C 140.5 7.4 143.1 6 146.7 6 C 151.9 6 154.4 8.8 154.4 13.8 L 154.4 22.5 C 154.4 24 154 24.8 152.6 25.3 C 151.2 26 149.2 26.3 146.6 26.3 C 143.7 26.3 141.6 25.8 140.4 24.8 C 139.1 23.7 138.5 22.1 138.5 20 C 138.5 15.5 140.9 13.7 146.8 13.7 C 147.7 13.7 148.6 13.7 149.5 13.8 Z M 162.8 6 C 166.6 6 169.3 7.4 170.5 10.2 C 171 11.2 170.7 12.2 169.6 12.7 L 168.5 13.2 C 167.5 13.6 166.9 13.4 166.2 12.4 L 166.2 12.3 C 165.6 11.2 164.8 10.7 162.9 10.7 C 160.9 10.7 160.1 11.2 160.1 12.1 C 160.1 13.2 160.7 13.5 163.7 13.8 C 166.1 14 167.8 14.5 169 15.3 C 170.4 16.2 171.1 17.8 171.1 19.9 C 171.1 23.9 168.1 26.3 163.2 26.3 C 159.1 26.3 156.3 24.7 155.2 21.6 C 154.7 20.5 155.1 19.5 156.2 19.2 L 157.4 18.7 C 158.3 18.4 159.2 18.8 159.7 19.8 C 160.1 21 161.2 21.6 163.1 21.6 C 165.4 21.6 166.2 21.1 166.2 20.1 C 166.2 19 165.7 18.7 162.8 18.4 C 160.9 18.2 160.1 18.1 158.8 17.6 C 158 17.3 157.4 16.9 156.9 16.5 C 155.9 15.6 155.2 14 155.2 12.2 C 155.2 8.3 158.1 6 162.8 6 Z M 187.1 18 L 187.1 18.7 C 187.1 20.7 188.2 21.7 190.5 21.7 C 192.3 21.7 193.5 21.1 194.2 19.8 C 194.9 18.8 195.8 18.6 196.8 19.2 L 197.6 19.7 C 198.7 20.2 199 21.3 198.3 22.3 C 196.9 25 194.2 26.3 190.4 26.3 C 185.2 26.3 182.2 23.3 182.2 18.3 L 182.2 14.2 C 182.2 9 185.3 6 190.6 6 C 195.8 6 199 9.1 199 13.9 L 199 15.9 C 199 17.2 198.1 18 196.7 18 L 187.1 18 Z M 177.9 6.5 L 181.1 6.5 C 182.3 6.5 182.9 7.2 182.9 8.3 L 182.9 9.5 C 182.9 10.6 182.3 11.3 181.1 11.3 L 177.9 11.3 L 177.9 18.1 C 177.9 19.6 178.1 20.5 178.4 20.9 C 178.8 21.2 179.7 21.4 181.1 21.4 C 182.3 21.4 182.9 22.1 182.9 23.2 L 182.9 24.5 C 182.9 25.6 182.3 26.2 181.1 26.3 C 178.2 26.3 176.1 25.8 174.9 24.5 C 173.6 23.3 173 21.2 173 18.2 L 173 11.3 L 171.2 11.3 C 170.1 11.3 169.5 10.6 169.5 9.5 L 169.5 8.3 C 169.5 7.1 170.1 6.5 171.2 6.5 L 173 6.5 L 173 4.3 C 173 3.1 173.6 2.5 174.7 2.5 L 176.1 2.5 C 177.2 2.5 177.9 3.1 177.9 4.3 L 177.9 6.5 Z M 61 11.2 C 61.1 11.9 61.2 12.6 61.2 13.5 L 61.2 24 C 61.2 25.1 60.6 25.8 59.5 25.8 L 58.1 25.8 C 56.9 25.8 56.3 25.2 56.3 24 L 56.3 13.6 C 56.3 11.6 55.5 10.7 53.6 10.7 C 52.7 10.7 51.9 10.9 51.1 11.1 L 51.1 24 C 51.1 25.2 50.5 25.8 49.3 25.8 L 48 25.8 C 46.8 25.8 46.2 25.1 46.2 24 L 46.2 10 C 46.2 8.5 46.7 7.8 48 7.2 C 49.8 6.4 51.8 6 54 6 C 55.7 6 57.1 6.4 58.3 7.1 C 60.3 6.4 62.1 6 64 6 C 68.6 6 71.1 8.6 71.1 13.5 L 71.1 24 C 71.1 25.1 70.5 25.8 69.4 25.8 L 68 25.8 C 66.8 25.8 66.2 25.2 66.2 24 L 66.2 13.6 C 66.2 11.6 65.5 10.7 63.6 10.7 C 62.8 10.7 61.9 10.9 61 11.2 Z M 83.7 11.2 L 83.7 24 C 83.7 25.2 83.1 25.8 81.9 25.8 L 80.5 25.8 C 79.4 25.8 78.8 25.1 78.8 24 L 78.8 10 C 78.8 8.5 79.2 7.8 80.6 7.2 C 82.5 6.4 84.7 6 87.2 6 C 92.2 6 94.9 8.7 94.9 13.6 L 94.9 24 C 94.9 25.2 94.2 25.8 93.1 25.8 L 91.7 25.8 C 90.6 25.8 89.9 25.2 89.9 24 L 89.9 13.7 C 89.9 11.6 89 10.7 86.9 10.7 C 85.7 10.7 84.7 10.9 83.7 11.2 Z M 75.6 6.5 C 76.8 6.5 77.4 7.1 77.4 8.3 L 77.4 24 C 77.4 25.2 76.8 25.8 75.6 25.8 L 74.2 25.8 C 73.1 25.8 72.4 25.2 72.4 24 L 72.4 8.3 C 72.4 7.1 73.1 6.5 74.2 6.5 L 75.6 6.5 Z M 127.9 11.2 C 128 11.9 128.1 12.6 128.1 13.5 L 128.1 24 C 128.1 25.1 127.5 25.8 126.4 25.8 L 125 25.8 C 123.8 25.8 123.2 25.2 123.2 24 L 123.2 13.6 C 123.2 11.6 122.4 10.7 120.5 10.7 C 119.6 10.7 118.8 10.9 118 11.1 L 118 24 C 118 25.2 117.4 25.8 116.2 25.8 L 114.8 25.8 C 113.7 25.8 113.1 25.1 113.1 24 L 113.1 10 C 113.1 8.5 113.6 7.8 114.9 7.2 C 116.7 6.4 118.7 6 120.9 6 C 122.6 6 124 6.4 125.2 7.1 C 127.2 6.4 129 6 130.9 6 C 135.5 6 138 8.6 138 13.5 L 138 24 C 138 25.1 137.4 25.8 136.3 25.8 L 134.9 25.8 C 133.7 25.8 133.1 25.2 133.1 24 L 133.1 13.6 C 133.1 11.6 132.4 10.7 130.5 10.7 C 129.7 10.7 128.8 10.9 127.9 11.2 Z M 204.5 11.2 L 204.5 24 C 204.5 25.2 203.8 25.8 202.7 25.8 L 201.3 25.8 C 200.2 25.8 199.5 25.1 199.5 24 L 199.5 9.9 C 199.5 8.4 200 7.7 201.4 7.1 C 203.2 6.4 205.3 6 207.8 6 L 208.8 6 C 210 6 210.6 6.7 210.6 7.8 L 210.6 8.9 C 210.6 10.1 210 10.7 208.8 10.7 L 207.7 10.7 C 206.6 10.7 205.5 10.9 204.5 11.2 Z M 27 11 L 26.6 11.4 L 22.2 15.9 L 27 20.8 L 27 11 Z M 6.6 11 L 6.6 20.8 L 11.4 15.9 L 6.6 11 Z M 149.5 21.5 L 149.5 18.3 C 148.1 18.2 147.1 18.1 146.4 18.1 C 144 18.1 143.4 18.6 143.4 20 C 143.4 21.4 144 21.8 146.4 21.8 C 147.8 21.8 148.9 21.7 149.5 21.5 Z M 107.1 21.1 C 107.1 21.1 107.1 21.1 107.1 21.1 C 107.1 21.1 107.1 21.1 107.1 21.1 Z M 106.8 21.1 L 106.8 11.2 C 105.7 10.9 104.7 10.7 103.8 10.7 C 101.5 10.7 100.6 11.7 100.6 13.9 L 100.6 18.5 C 100.6 20.6 101.6 21.5 103.9 21.5 C 105 21.5 106 21.4 106.8 21.1 Z M 187.1 13.7 L 194 13.7 C 194 11.6 192.9 10.5 190.6 10.5 C 188.2 10.5 187.1 11.6 187.1 13.7 Z M 75 0.2 C 76.8 0.2 77.6 1 77.6 2.8 L 77.6 3 C 77.6 4.8 76.8 5.7 75 5.7 L 74.8 5.7 C 73.1 5.7 72.3 4.8 72.3 3 L 72.3 2.8 C 72.3 1 73.1 0.2 74.8 0.2 L 75 0.2 Z" fill="#b8b8b8" stroke-width="2"/><path transform="translate(104.8,15.5) rotate(-360) translate(-104.8,-15.5)" d="M 4.3 0.8 C 5.3 0.8 6.4 1.3 7.2 2.1 L 7.2 2.1 L 16.8 11.9 L 16.8 11.9 L 26.4 2.1 C 28.1 0.4 30.7 0.4 32.4 2.1 C 33.2 2.9 33.6 4 33.6 5.1 L 33.6 26.7 C 33.6 29.1 31.7 31 29.4 31 C 28.3 31 27.2 30.5 26.4 29.7 L 16.8 19.9 L 7.2 29.7 C 6.4 30.5 5.3 31 4.2 31 C 1.9 31 0 29.1 0 26.7 L 0 5.1 C 0 4 0.4 2.9 1.2 2.1 C 2 1.3 3.1 0.8 4.1 0.8 Z M 110 0 C 110.6 0 110.8 0.2 110.8 0.8 L 110.8 22.4 C 110.8 23.5 110.5 23.8 109.5 24.3 C 107.7 25 105.8 25.3 103.6 25.3 C 99 25.3 96.6 23 96.6 18.6 L 96.6 13.8 C 96.6 9.4 98.9 7 103.3 7 C 104.5 7 106 7.2 107.8 7.7 L 107.8 0.8 C 107.8 0.2 108.1 0 108.6 0 L 110 0 Z M 146.7 7 C 151.6 7 153.4 9.6 153.4 13.8 L 153.4 22.5 C 153.4 23.7 153.2 24 152.2 24.4 C 150.9 25 149.1 25.3 146.6 25.3 C 143.9 25.3 142 24.9 141 24 C 140 23.1 139.5 21.8 139.5 20 C 139.5 16.1 141.5 14.7 146.8 14.7 C 147.9 14.7 149.2 14.8 150.5 14.9 L 150.5 13.7 C 150.5 11.1 149.5 9.7 146.6 9.7 C 144.7 9.7 143.4 10.4 142.5 11.7 C 142.1 12.3 142.1 12.4 141.5 12.1 L 140.4 11.7 C 139.9 11.4 139.8 11.1 140 10.5 C 141.2 8.2 143.4 7 146.7 7 Z M 162.8 7 C 166.3 7 168.6 8.2 169.6 10.6 C 169.9 11.2 169.8 11.6 169.2 11.8 L 168.1 12.3 C 167.5 12.5 167.4 12.4 167.1 11.9 C 166.4 10.5 165.2 9.7 162.9 9.7 C 160.4 9.7 159.1 10.5 159.1 12.1 C 159.1 14.1 160.4 14.5 163.6 14.8 C 165.7 15 167.4 15.4 168.5 16.1 C 169.5 16.8 170.1 18.1 170.1 19.9 C 170.1 23.2 167.7 25.3 163.2 25.3 C 159.5 25.3 157.1 23.9 156.1 21.2 C 155.8 20.6 156 20.3 156.6 20.1 L 157.7 19.7 C 158.2 19.5 158.5 19.7 158.7 20.2 C 159.3 21.8 160.8 22.6 163.1 22.6 C 165.8 22.6 167.2 21.8 167.2 20.1 C 167.2 18.2 166 17.7 162.9 17.4 C 161.3 17.3 160.5 17.1 159.1 16.6 C 158.5 16.4 158 16.1 157.6 15.8 C 156.9 15.1 156.2 13.8 156.2 12.2 C 156.2 9 158.5 7 162.8 7 Z M 190.6 7 C 195.4 7 198 9.8 198 13.9 L 198 15.9 C 198 16.6 197.6 17 196.7 17 L 186.1 17 L 186.1 18.7 C 186.1 21.2 187.6 22.7 190.5 22.7 C 192.6 22.7 194.1 21.9 195 20.4 C 195.4 19.8 195.7 19.7 196.3 20.1 L 197.2 20.5 C 197.7 20.8 197.8 21.3 197.5 21.8 C 196.2 24.2 193.8 25.3 190.4 25.3 C 185.6 25.3 183.2 22.6 183.2 18.3 L 183.2 14.2 C 183.2 9.6 185.8 7 190.6 7 Z M 176.1 3.5 C 176.6 3.5 176.9 3.7 176.9 4.3 L 176.9 7.5 L 181.1 7.5 C 181.7 7.5 181.9 7.7 181.9 8.3 L 181.9 9.5 C 181.9 10 181.7 10.3 181.1 10.3 L 176.9 10.3 L 176.9 18.1 C 176.9 19.9 177.2 21 177.7 21.6 C 178.3 22.1 179.4 22.4 181.1 22.4 C 181.7 22.4 181.9 22.6 181.9 23.2 L 181.9 24.5 C 181.9 25 181.7 25.2 181.1 25.3 C 178.4 25.3 176.6 24.9 175.6 23.8 C 174.5 22.8 174 20.9 174 18.2 L 174 10.3 L 171.2 10.3 C 170.7 10.3 170.5 10 170.5 9.5 L 170.5 8.3 C 170.5 7.7 170.7 7.5 171.2 7.5 L 174 7.5 L 174 4.3 C 174 3.7 174.2 3.5 174.7 3.5 L 176.1 3.5 Z M 64 7 C 68.1 7 70.1 9.2 70.1 13.5 L 70.1 24 C 70.1 24.6 69.9 24.8 69.4 24.8 L 68 24.8 C 67.4 24.8 67.2 24.6 67.2 24 L 67.2 13.6 C 67.2 11 66 9.7 63.6 9.7 C 62.4 9.7 61.1 10 59.7 10.7 C 60 11.4 60.2 12.3 60.2 13.5 L 60.2 24 C 60.2 24.6 60 24.8 59.5 24.8 L 58.1 24.8 C 57.5 24.8 57.3 24.6 57.3 24 L 57.3 13.6 C 57.3 11 56.1 9.7 53.6 9.7 C 52.5 9.7 51.5 9.9 50.5 10.3 C 50.2 10.5 50.1 10.7 50.1 11 L 50.1 24 C 50.1 24.6 49.9 24.8 49.3 24.8 L 48 24.8 C 47.4 24.8 47.2 24.6 47.2 24 L 47.2 10 C 47.2 8.9 47.4 8.5 48.4 8.1 C 50.1 7.4 51.9 7 54 7 C 55.8 7 57.1 7.4 58.1 8.3 C 60.2 7.4 62.1 7 64 7 Z M 87.2 7 C 91.7 7 93.9 9.2 93.9 13.6 L 93.9 24 C 93.9 24.6 93.7 24.8 93.1 24.8 L 91.7 24.8 C 91.2 24.8 90.9 24.6 90.9 24 L 90.9 13.7 C 90.9 11.1 89.6 9.7 86.9 9.7 C 85.5 9.7 84.3 9.9 83.1 10.4 C 82.8 10.5 82.7 10.7 82.7 11 L 82.7 24 C 82.7 24.6 82.5 24.8 81.9 24.8 L 80.5 24.8 C 80 24.8 79.8 24.6 79.8 24 L 79.8 10 C 79.8 8.9 80 8.6 81 8.1 C 82.8 7.4 84.9 7 87.2 7 Z M 75.6 7.5 C 76.2 7.5 76.4 7.7 76.4 8.3 L 76.4 24 C 76.4 24.6 76.2 24.8 75.6 24.8 L 74.2 24.8 C 73.6 24.8 73.4 24.6 73.4 24 L 73.4 8.3 C 73.4 7.7 73.6 7.5 74.2 7.5 L 75.6 7.5 Z M 130.9 7 C 135 7 137 9.2 137 13.5 L 137 24 C 137 24.6 136.8 24.8 136.3 24.8 L 134.9 24.8 C 134.3 24.8 134.1 24.6 134.1 24 L 134.1 13.6 C 134.1 11 132.9 9.7 130.5 9.7 C 129.3 9.7 128 10 126.6 10.7 C 126.9 11.4 127.1 12.3 127.1 13.5 L 127.1 24 C 127.1 24.6 126.9 24.8 126.4 24.8 L 125 24.8 C 124.4 24.8 124.2 24.6 124.2 24 L 124.2 13.6 C 124.2 11 123 9.7 120.5 9.7 C 119.4 9.7 118.4 9.9 117.4 10.3 C 117.1 10.5 117 10.7 117 11 L 117 24 C 117 24.6 116.8 24.8 116.2 24.8 L 114.8 24.8 C 114.3 24.8 114.1 24.6 114.1 24 L 114.1 10 C 114.1 8.9 114.3 8.5 115.3 8.1 C 117 7.4 118.8 7 120.9 7 C 122.7 7 124 7.4 125 8.3 C 127.1 7.4 129 7 130.9 7 Z M 208.8 7 C 209.4 7 209.6 7.2 209.6 7.8 L 209.6 8.9 C 209.6 9.5 209.4 9.7 208.8 9.7 L 207.7 9.7 C 206.4 9.7 205.1 9.9 203.9 10.3 C 203.6 10.4 203.5 10.7 203.5 11 L 203.5 24 C 203.5 24.6 203.3 24.8 202.7 24.8 L 201.3 24.8 C 200.7 24.8 200.5 24.6 200.5 24 L 200.5 9.9 C 200.5 8.8 200.8 8.5 201.8 8 C 203.4 7.4 205.4 7 207.8 7 L 208.8 7 Z M 28 8.5 L 25.9 10.7 L 20.8 15.9 L 27.6 22.9 L 28 23.3 L 28 8.5 Z M 5.6 8.5 L 5.6 23.3 L 12.8 15.9 L 12.8 15.9 L 5.6 8.5 Z M 146.4 17.1 C 143.4 17.1 142.4 18 142.4 20 C 142.4 21.9 143.3 22.8 146.4 22.8 C 148 22.8 149.2 22.6 150 22.4 C 150.3 22.2 150.5 22 150.5 21.6 L 150.5 17.4 C 148.7 17.3 147.4 17.1 146.4 17.1 Z M 103.8 9.7 C 101 9.7 99.6 11.2 99.6 13.9 L 99.6 18.5 C 99.6 21.2 101 22.5 103.9 22.5 C 105.2 22.5 106.4 22.4 107.4 22 C 107.7 21.9 107.8 21.7 107.8 21.4 L 107.8 10.5 C 106.3 10 104.9 9.7 103.8 9.7 Z M 190.6 9.5 C 187.7 9.5 186.1 11.1 186.1 13.8 L 186.1 14.7 L 195 14.7 L 195 13.8 C 195 11.1 193.5 9.5 190.6 9.5 Z M 75 1.2 C 76.2 1.2 76.6 1.6 76.6 2.8 L 76.6 3 C 76.6 4.3 76.2 4.7 75 4.7 L 74.8 4.7 C 73.6 4.7 73.3 4.3 73.3 3 L 73.3 2.8 C 73.3 1.6 73.6 1.2 74.8 1.2 L 75 1.2 Z" fill="#8f8f8f"/></g></g></svg></svg>